<svg width="14" height="14" viewBox="0 0 14 14" fill="none" xmlns="http://www.w3.org/2000/svg">
<path d="M11.5505 6.06584C11.6074 6.3575 11.6667 6.70842 11.6667 7.00008C11.6667 9.56584 9.56578 11.6667 7.00002 11.6667C4.43427 11.6667 2.33335 9.56584 2.33335 7.00008C2.33335 4.43433 4.43427 2.33341 7.00002 2.33341C7.93427 2.33341 8.86623 2.62508 9.56578 3.0922L10.3838 2.27417C9.44957 1.57463 8.2829 1.16675 7.00002 1.16675C3.79169 1.16675 1.16669 3.79175 1.16669 7.00008C1.16669 10.2084 3.79169 12.8334 7.00002 12.8334C10.2084 12.8334 12.8334 10.2084 12.8334 7.00008C12.8334 6.3575 12.7171 5.7172 12.5417 5.13387L11.5505 6.06584Z" fill="#2769A6"/>
<path d="M6.41669 9.56584L3.67548 6.82463L4.49123 6.00887L6.41669 7.93433L12.4255 1.92554L13.2412 2.74129L6.41669 9.56584Z" fill="#2769A6"/>
</svg>
