<svg width="36" height="36" viewBox="0 0 36 36" fill="none" xmlns="http://www.w3.org/2000/svg">
<path d="M33 18C33 26.283 26.283 33 18 33C9.717 33 3 26.283 3 18C3 9.717 9.717 3 18 3C26.283 3 33 9.717 33 18Z" fill="#00ACC1"/>
<path d="M30 18C30 24.6285 24.6285 30 18 30C11.3715 30 6 24.6285 6 18C6 11.3715 11.3722 6 18 6C24.6277 6 30 11.3722 30 18Z" fill="#EEEEEE"/>
<path d="M17.25 8.25H18.75V18H17.25V8.25Z" fill="black"/>
<path d="M17.3806 18.6196L18.62 17.3802L23.4949 22.2549L22.2555 23.4943L17.3806 18.6196Z" fill="black"/>
<path d="M20.25 18C20.25 19.2427 19.242 20.25 18 20.25C16.7573 20.25 15.75 19.2427 15.75 18C15.75 16.7573 16.7573 15.75 18 15.75C19.242 15.75 20.25 16.7573 20.25 18Z" fill="black"/>
<path d="M18.75 18C18.75 18.4132 18.414 18.75 18 18.75C17.586 18.75 17.25 18.4132 17.25 18C17.25 17.5852 17.586 17.25 18 17.25C18.414 17.25 18.75 17.5852 18.75 18Z" fill="#00ACC1"/>
</svg>
