<svg width="36" height="36" viewBox="0 0 36 36" fill="none" xmlns="http://www.w3.org/2000/svg">
<path d="M33 18C33 26.3513 26.1975 33 18 33C9.80547 33 2.99997 26.3513 2.99997 18C2.99997 9.64875 9.64872 3 18 3C26.3512 3 33 9.64875 33 18Z" fill="#2196F3"/>
<path d="M17.3865 24.4485C16.4648 24.1403 15.546 24.1403 14.7788 23.373C14.6243 23.0678 14.6243 22.7595 14.4735 22.4543C14.1653 22.146 13.398 21.9945 12.9383 21.8408H9.87077C9.40877 21.687 9.10352 21.0735 8.79527 20.6138C8.79527 20.46 8.79527 20.1518 8.49002 20.1518C8.18177 20.0003 7.87652 20.3055 7.56827 20.1518C7.41677 20.0003 7.41677 19.8465 7.41677 19.692C7.41677 19.2323 7.72202 18.7703 8.03027 18.465C8.49002 18.1568 8.94902 18.6188 9.40877 18.6188C9.56252 18.6188 9.78002 18.3765 9.93377 18.5273C10.3935 18.681 10.5473 19.2945 10.5473 19.7573V20.0625C10.5473 20.2163 10.8623 20.2185 11.016 20.2185C11.1675 19.4513 11.244 18.6945 11.3213 17.9183C11.4128 17.001 11.865 16.3155 12.63 16.0103C12.9383 15.8565 13.092 16.164 13.3973 16.0103C14.319 15.702 16.9125 14.5155 16.4528 13.2885C16.1445 12.213 15.1958 11.1608 13.9688 11.3123C13.6605 11.466 11.5568 13.251 11.097 13.251C10.3298 13.0973 10.3298 12.024 10.4835 11.562C10.6373 10.9485 12.0158 8.95427 12.9375 9.26177C13.092 9.41627 14.5403 9.75002 15 9.75002C15.1538 9.75002 15.3083 9.75002 15.4598 9.59627C15.6135 9.44177 15.6135 9.44177 15.6135 9.28802C15.6135 8.82827 13.9598 7.83902 13.5 7.68752C11.9678 7.22552 9.40802 7.72652 8.18102 8.80277C8.07902 8.89202 7.96577 8.98352 7.84652 9.07577C5.77802 11.4323 4.51877 14.52 4.50302 17.9355C4.56677 18.153 4.66202 18.3765 4.80827 18.6188C5.26802 19.5405 6.18677 20.4593 7.10852 21.0728C7.72202 21.5325 8.94902 21.5325 9.56252 22.2998C10.0223 22.9163 9.87077 23.6805 9.87077 24.4485C9.87077 25.3673 10.4843 26.1353 10.7895 26.9025C10.9433 27.3623 11.0978 27.9758 11.2515 28.4378C11.2515 28.5893 11.403 29.511 11.403 29.6648C11.4173 29.709 11.4323 29.7473 11.4473 29.79C12.2333 30.228 13.0643 30.5925 13.9335 30.8685C14.0093 30.831 14.0858 30.792 14.1653 30.75C14.319 30.75 14.9325 29.97 14.9325 29.8185C15.3923 29.3565 15.6998 28.743 16.1595 28.4378C16.4648 28.284 16.773 28.1295 17.0783 27.8213C17.3865 27.516 17.5403 26.9025 17.6918 26.4428C17.8455 26.1345 18 25.521 17.8455 25.062C17.8463 24.7538 17.6918 24.6023 17.3865 24.4485ZM17.9025 4.50452C17.724 4.50602 17.5508 4.52252 17.3738 4.53077C17.0055 4.59302 16.638 4.75652 16.524 5.08502C16.371 5.81702 16.9808 5.67002 17.5898 5.81702C17.5898 5.81702 17.7428 6.98777 17.7428 7.13477C17.8958 7.86677 17.4368 8.30552 17.4368 9.03527C17.4368 9.47627 17.4368 10.2083 17.7428 10.5H17.8958C18.0488 10.5 18.1988 10.353 18.5055 10.209C18.9623 9.91502 19.4213 9.47702 19.878 9.18302C20.3348 8.89202 20.7908 8.45102 21.0968 8.15927C21.5535 7.86527 21.8595 7.28027 22.0125 6.84152C22.1625 6.54752 22.6223 5.96252 22.4693 5.52377C22.3163 5.22977 21.5535 5.08577 21.2505 4.93877C20.3678 4.72652 19.5653 4.59527 18.729 4.53677C18.6225 4.53152 18.516 4.52402 18.4088 4.52102C18.2423 4.51277 18.0735 4.50677 17.9025 4.50452ZM31.5 18C31.5 13.731 29.5658 9.95927 26.52 7.49477C26.4165 7.52027 26.3145 7.55252 26.2148 7.59677C25.755 7.75052 24.5558 9.96602 24.2483 10.425C24.0945 10.5788 23.943 10.8848 24.0945 11.0385C24.0945 11.1923 24.2483 11.1923 24.4028 11.1923C24.708 11.346 24.7493 11.4098 25.0575 11.5613C25.2113 11.5613 25.3628 11.715 25.2113 11.8695C25.2113 11.8695 25.2113 12.0233 25.0575 12.0233C24.2903 12.7905 23.5223 13.404 22.7573 14.169C22.6028 14.3243 22.5 14.6325 22.5 14.7833C22.5 14.937 22.6028 14.937 22.6028 15.0915C22.6028 15.246 22.449 15.2453 22.2945 15.3968C21.9893 15.5505 21.681 15.705 21.5273 15.8588C21.3758 16.164 21.5273 16.626 21.3758 16.932C21.2213 17.6993 20.7593 18.3128 20.454 19.0808C20.1458 19.5405 19.8705 19.9995 19.5623 20.4615C19.5623 21.075 19.4085 21.5348 19.716 21.9938C20.4833 23.0693 22.02 22.0403 23.0933 22.4993C23.3985 22.653 23.661 22.6815 23.8605 22.959C24.2415 23.4878 24.288 24.6023 24.4425 25.0643C24.594 25.6778 24.7478 26.2913 25.056 26.9048C25.2098 27.672 25.5158 28.44 25.6695 29.0505C25.677 29.0603 25.6853 29.0663 25.6935 29.076C29.1855 26.6475 31.5 22.6163 31.5 18Z" fill="#CDDC39"/>
</svg>
