<svg width="36" height="36" viewBox="0 0 36 36" fill="none" xmlns="http://www.w3.org/2000/svg">
<path d="M29.7 30.75C32.25 27.975 33.75 24.3 33.75 20.25C33.75 11.55 26.7 4.5 18 4.5C9.3 4.5 2.25 11.55 2.25 20.25C2.25 24.3 3.75 27.975 6.3 30.75H29.7Z" fill="#37474F"/>
<path d="M13.5 25.5H22.5V28.5H13.5V25.5Z" fill="#00E5FF"/>
<path d="M17.6519 19.5835L26.658 14.3328L27.4135 15.6286L18.4074 20.8793L17.6519 19.5835Z" fill="#FF3D00"/>
<path d="M17.925 17.925C19.125 17.925 20.1 18.9 20.1 20.1C20.1 21.3 19.125 22.2751 17.925 22.2751C16.725 22.2751 15.75 21.3 15.75 20.1C15.675 18.9 16.725 17.925 17.925 17.925Z" fill="#FF3D00"/>
<path d="M6 19.5C6 19.725 6 20.025 6 20.25C6 20.475 6 20.775 6 21H9C9 20.775 8.925 20.475 8.925 20.25C8.925 20.025 8.925 19.725 9 19.5H6ZM10.65 25.425C10.35 25.05 10.125 24.6 9.9 24.15L7.35 25.725C7.575 26.1749 7.8 26.625 8.1 27L10.65 25.425ZM12.675 12.975C13.05 12.675 13.5 12.45 13.95 12.225L12.45 9.59995C12 9.82495 11.55 10.125 11.175 10.35L12.675 12.975ZM9.825 16.425C10.05 15.975 10.275 15.525 10.575 15.15L8.025 13.575C7.725 14.025 7.5 14.475 7.275 14.925L9.825 16.425ZM18.75 11.325V8.32495C18.525 8.32495 18.225 8.32495 18 8.32495C17.775 8.32495 17.475 8.32495 17.25 8.32495V11.4C17.475 11.4 17.775 11.325 18 11.325C18.225 11.325 18.525 11.25 18.75 11.325ZM25.35 25.5L27.975 27C28.275 26.55 28.5 26.1 28.725 25.65L26.1 24.15C25.875 24.675 25.575 25.125 25.35 25.5ZM30 21C30 20.775 30 20.475 30 20.25C30 20.025 30 19.725 30 19.5H27C27 19.725 27.075 20.025 27.075 20.25C27.075 20.475 27.075 20.775 27 21H30ZM24.6 10.2C24.15 9.89995 23.7 9.67495 23.25 9.44995L21.75 12.075C22.2 12.3 22.65 12.525 23.025 12.825L24.6 10.2Z" fill="#CFD8DC"/>
<path d="M8.1 27C6.75 25.05 6 22.725 6 20.25C6 13.65 11.4 8.25 18 8.25C24.6 8.25 30 13.65 30 20.25C30 22.725 29.25 25.05 27.9 27L29.175 27.75C30.6 25.575 31.425 23.025 31.425 20.25C31.425 12.825 25.35 6.75 17.925 6.75C10.5 6.75 4.5 12.825 4.5 20.25C4.5 23.025 5.325 25.65 6.825 27.75L8.1 27Z" fill="#CFD8DC"/>
</svg>
