<svg width="115" height="114" viewBox="0 0 115 114" fill="none" xmlns="http://www.w3.org/2000/svg">
<g opacity="0.02">
<circle cx="2.5" cy="61.5" r="2.5" fill="white"/>
<circle cx="12.5" cy="61.5" r="2.5" fill="white"/>
<circle cx="22.5" cy="61.5" r="2.5" fill="white"/>
<circle cx="22.5" cy="71.5" r="2.5" fill="white"/>
<circle cx="12.5" cy="71.5" r="2.5" fill="white"/>
<circle cx="2.5" cy="71.5" r="2.5" fill="white"/>
<circle cx="22.5" cy="81.5" r="2.5" fill="white"/>
<circle cx="12.5" cy="81.5" r="2.5" fill="white"/>
<circle cx="2.5" cy="81.5" r="2.5" fill="white"/>
<circle cx="52.5" cy="61.5" r="2.5" fill="white"/>
<circle cx="42.5" cy="61.5" r="2.5" fill="white"/>
<circle cx="32.5" cy="61.5" r="2.5" fill="white"/>
<circle cx="52.5" cy="71.5" r="2.5" fill="white"/>
<circle cx="42.5" cy="71.5" r="2.5" fill="white"/>
<circle cx="32.5" cy="71.5" r="2.5" fill="white"/>
<circle cx="52.5" cy="81.5" r="2.5" fill="white"/>
<circle cx="42.5" cy="81.5" r="2.5" fill="white"/>
<circle cx="32.5" cy="81.5" r="2.5" fill="white"/>
<circle cx="2.5" cy="91.5" r="2.5" fill="white"/>
<circle cx="12.5" cy="91.5" r="2.5" fill="white"/>
<circle cx="22.5" cy="91.5" r="2.5" fill="white"/>
<circle cx="22.5" cy="101.5" r="2.5" fill="white"/>
<circle cx="12.5" cy="101.5" r="2.5" fill="white"/>
<circle cx="2.5" cy="101.5" r="2.5" fill="white"/>
<circle cx="22.5" cy="111.5" r="2.5" fill="white"/>
<circle cx="12.5" cy="111.5" r="2.5" fill="white"/>
<circle cx="2.5" cy="111.5" r="2.5" fill="white"/>
<circle cx="52.5" cy="91.5" r="2.5" fill="white"/>
<circle cx="42.5" cy="91.5" r="2.5" fill="white"/>
<circle cx="32.5" cy="91.5" r="2.5" fill="white"/>
<circle cx="52.5" cy="101.5" r="2.5" fill="white"/>
<circle cx="42.5" cy="101.5" r="2.5" fill="white"/>
<circle cx="32.5" cy="101.5" r="2.5" fill="white"/>
<circle cx="52.5" cy="111.5" r="2.5" fill="white"/>
<circle cx="42.5" cy="111.5" r="2.5" fill="white"/>
<circle cx="32.5" cy="111.5" r="2.5" fill="white"/>
<circle cx="62.5" cy="61.5" r="2.5" fill="white"/>
<circle cx="72.5" cy="61.5" r="2.5" fill="white"/>
<circle cx="82.5" cy="61.5" r="2.5" fill="white"/>
<circle cx="82.5" cy="71.5" r="2.5" fill="white"/>
<circle cx="72.5" cy="71.5" r="2.5" fill="white"/>
<circle cx="62.5" cy="71.5" r="2.5" fill="white"/>
<circle cx="82.5" cy="81.5" r="2.5" fill="white"/>
<circle cx="72.5" cy="81.5" r="2.5" fill="white"/>
<circle cx="62.5" cy="81.5" r="2.5" fill="white"/>
<circle cx="112.5" cy="61.5" r="2.5" fill="white"/>
<circle cx="102.5" cy="61.5" r="2.5" fill="white"/>
<circle cx="92.5" cy="61.5" r="2.5" fill="white"/>
<circle cx="112.5" cy="71.5" r="2.5" fill="white"/>
<circle cx="102.5" cy="71.5" r="2.5" fill="white"/>
<circle cx="92.5" cy="71.5" r="2.5" fill="white"/>
<circle cx="112.5" cy="81.5" r="2.5" fill="white"/>
<circle cx="102.5" cy="81.5" r="2.5" fill="white"/>
<circle cx="92.5" cy="81.5" r="2.5" fill="white"/>
<circle cx="62.5" cy="91.5" r="2.5" fill="white"/>
<circle cx="72.5" cy="91.5" r="2.5" fill="white"/>
<circle cx="82.5" cy="91.5" r="2.5" fill="white"/>
<circle cx="82.5" cy="101.5" r="2.5" fill="white"/>
<circle cx="72.5" cy="101.5" r="2.5" fill="white"/>
<circle cx="62.5" cy="101.5" r="2.5" fill="white"/>
<circle cx="82.5" cy="111.5" r="2.5" fill="white"/>
<circle cx="72.5" cy="111.5" r="2.5" fill="white"/>
<circle cx="62.5" cy="111.5" r="2.5" fill="white"/>
<circle cx="112.5" cy="91.5" r="2.5" fill="white"/>
<circle cx="102.5" cy="91.5" r="2.5" fill="white"/>
<circle cx="92.5" cy="91.5" r="2.5" fill="white"/>
<circle cx="112.5" cy="101.5" r="2.5" fill="white"/>
<circle cx="102.5" cy="101.5" r="2.5" fill="white"/>
<circle cx="92.5" cy="101.5" r="2.5" fill="white"/>
<circle cx="112.5" cy="111.5" r="2.5" fill="white"/>
<circle cx="102.5" cy="111.5" r="2.5" fill="white"/>
<circle cx="92.5" cy="111.5" r="2.5" fill="white"/>
<circle cx="2.5" cy="2.5" r="2.5" fill="white"/>
<circle cx="12.5" cy="2.5" r="2.5" fill="white"/>
<circle cx="22.5" cy="2.5" r="2.5" fill="white"/>
<circle cx="22.5" cy="12.5" r="2.5" fill="white"/>
<circle cx="12.5" cy="12.5" r="2.5" fill="white"/>
<circle cx="2.5" cy="12.5" r="2.5" fill="white"/>
<circle cx="22.5" cy="22.5" r="2.5" fill="white"/>
<circle cx="12.5" cy="22.5" r="2.5" fill="white"/>
<circle cx="2.5" cy="22.5" r="2.5" fill="white"/>
<circle cx="52.5" cy="2.5" r="2.5" fill="white"/>
<circle cx="42.5" cy="2.5" r="2.5" fill="white"/>
<circle cx="32.5" cy="2.5" r="2.5" fill="white"/>
<circle cx="52.5" cy="12.5" r="2.5" fill="white"/>
<circle cx="42.5" cy="12.5" r="2.5" fill="white"/>
<circle cx="32.5" cy="12.5" r="2.5" fill="white"/>
<circle cx="52.5" cy="22.5" r="2.5" fill="white"/>
<circle cx="42.5" cy="22.5" r="2.5" fill="white"/>
<circle cx="32.5" cy="22.5" r="2.5" fill="white"/>
<circle cx="2.5" cy="32.5" r="2.5" fill="white"/>
<circle cx="12.5" cy="32.5" r="2.5" fill="white"/>
<circle cx="22.5" cy="32.5" r="2.5" fill="white"/>
<circle cx="22.5" cy="42.5" r="2.5" fill="white"/>
<circle cx="12.5" cy="42.5" r="2.5" fill="white"/>
<circle cx="2.5" cy="42.5" r="2.5" fill="white"/>
<circle cx="22.5" cy="52.5" r="2.5" fill="white"/>
<circle cx="12.5" cy="52.5" r="2.5" fill="white"/>
<circle cx="2.5" cy="52.5" r="2.5" fill="white"/>
<circle cx="52.5" cy="32.5" r="2.5" fill="white"/>
<circle cx="42.5" cy="32.5" r="2.5" fill="white"/>
<circle cx="32.5" cy="32.5" r="2.5" fill="white"/>
<circle cx="52.5" cy="42.5" r="2.5" fill="white"/>
<circle cx="42.5" cy="42.5" r="2.5" fill="white"/>
<circle cx="32.5" cy="42.5" r="2.5" fill="white"/>
<circle cx="52.5" cy="52.5" r="2.5" fill="white"/>
<circle cx="42.5" cy="52.5" r="2.5" fill="white"/>
<circle cx="32.5" cy="52.5" r="2.5" fill="white"/>
<circle cx="62.5" cy="2.5" r="2.5" fill="white"/>
<circle cx="72.5" cy="2.5" r="2.5" fill="white"/>
<circle cx="82.5" cy="2.5" r="2.5" fill="white"/>
<circle cx="82.5" cy="12.5" r="2.5" fill="white"/>
<circle cx="72.5" cy="12.5" r="2.5" fill="white"/>
<circle cx="62.5" cy="12.5" r="2.5" fill="white"/>
<circle cx="82.5" cy="22.5" r="2.5" fill="white"/>
<circle cx="72.5" cy="22.5" r="2.5" fill="white"/>
<circle cx="62.5" cy="22.5" r="2.5" fill="white"/>
<circle cx="112.5" cy="2.5" r="2.5" fill="white"/>
<circle cx="102.5" cy="2.5" r="2.5" fill="white"/>
<circle cx="92.5" cy="2.5" r="2.5" fill="white"/>
<circle cx="112.5" cy="12.5" r="2.5" fill="white"/>
<circle cx="102.5" cy="12.5" r="2.5" fill="white"/>
<circle cx="92.5" cy="12.5" r="2.5" fill="white"/>
<circle cx="112.5" cy="22.5" r="2.5" fill="white"/>
<circle cx="102.5" cy="22.5" r="2.5" fill="white"/>
<circle cx="92.5" cy="22.5" r="2.5" fill="white"/>
<circle cx="62.5" cy="32.5" r="2.5" fill="white"/>
<circle cx="72.5" cy="32.5" r="2.5" fill="white"/>
<circle cx="82.5" cy="32.5" r="2.5" fill="white"/>
<circle cx="82.5" cy="42.5" r="2.5" fill="white"/>
<circle cx="72.5" cy="42.5" r="2.5" fill="white"/>
<circle cx="62.5" cy="42.5" r="2.5" fill="white"/>
<circle cx="82.5" cy="52.5" r="2.5" fill="white"/>
<circle cx="72.5" cy="52.5" r="2.5" fill="white"/>
<circle cx="62.5" cy="52.5" r="2.5" fill="white"/>
<circle cx="112.5" cy="32.5" r="2.5" fill="white"/>
<circle cx="102.5" cy="32.5" r="2.5" fill="white"/>
<circle cx="92.5" cy="32.5" r="2.5" fill="white"/>
<circle cx="112.5" cy="42.5" r="2.5" fill="white"/>
<circle cx="102.5" cy="42.5" r="2.5" fill="white"/>
<circle cx="92.5" cy="42.5" r="2.5" fill="white"/>
<circle cx="112.5" cy="52.5" r="2.5" fill="white"/>
<circle cx="102.5" cy="52.5" r="2.5" fill="white"/>
<circle cx="92.5" cy="52.5" r="2.5" fill="white"/>
</g>
</svg>
