<svg width="120" height="139" viewBox="0 0 120 139" fill="none" xmlns="http://www.w3.org/2000/svg">
<path opacity="0.06" d="M56.0331 30.261C59.5293 30.261 62.3635 27.4263 62.3635 23.9295C62.3635 20.4326 59.5293 17.5979 56.0331 17.5979C52.537 17.5979 49.7028 20.4326 49.7028 23.9295C49.7028 27.4263 52.537 30.261 56.0331 30.261Z" fill="white"/>
<path opacity="0.06" d="M56.0332 32.3053C60.5662 32.3053 64.2409 28.6299 64.2409 24.096C64.2409 19.5622 60.5662 15.8867 56.0332 15.8867C51.5001 15.8867 47.8254 19.5622 47.8254 24.096C47.8254 28.6299 51.5001 32.3053 56.0332 32.3053Z" fill="white"/>
<path opacity="0.06" d="M69.9602 27.2682C71.7495 19.5837 66.9717 11.9033 59.2885 10.1136C51.6054 8.32393 43.9264 13.1027 42.1371 20.7873C40.3478 28.4718 45.1256 36.1522 52.8088 37.9419C60.4919 39.7316 68.1708 34.9528 69.9602 27.2682Z" fill="white"/>
<path opacity="0.06" d="M109.125 48.6043C109.923 45.1999 107.811 41.7927 104.407 40.9942C101.004 40.1957 97.597 42.3082 96.7986 45.7127C96.0003 49.1171 98.1124 52.5243 101.516 53.3228C104.92 54.1213 108.327 52.0087 109.125 48.6043Z" fill="white"/>
<path opacity="0.06" d="M108.783 53.1344C111.988 49.9285 111.988 44.7307 108.783 41.5247C105.578 38.3188 100.381 38.3188 97.1753 41.5247C93.97 44.7307 93.97 49.9285 97.1753 53.1344C100.381 56.3404 105.578 56.3404 108.783 53.1344Z" fill="white"/>
<path opacity="0.06" d="M102.977 61.5445C110.866 61.5445 117.261 55.1482 117.261 47.2579C117.261 39.3677 110.866 32.9714 102.977 32.9714C95.0882 32.9714 88.6931 39.3677 88.6931 47.2579C88.6931 55.1482 95.0882 61.5445 102.977 61.5445Z" fill="white"/>
<g style="mix-blend-mode:overlay">
<path d="M32.0988 83.2355C18.1756 91.2598 18.1756 104.399 32.0988 112.424C46.022 120.448 68.8095 120.453 82.7327 112.424C96.6558 104.395 96.6604 91.2598 82.7327 83.2355C68.8049 75.2112 46.022 75.2066 32.0988 83.2355Z" fill="white"/>
</g>
<g style="mix-blend-mode:overlay">
<path d="M35.1017 87.3435C22.342 94.6465 22.342 106.6 35.1017 113.907C47.8614 121.213 68.7356 121.213 81.4953 113.907C94.255 106.6 94.2517 94.6465 81.4953 87.3435C68.7389 80.0405 47.8581 80.0372 35.1017 87.3435Z" stroke="white" stroke-width="2" stroke-miterlimit="10"/>
</g>
<g style="mix-blend-mode:overlay">
<path d="M27.9977 83.9703C11.093 93.601 11.093 109.359 27.9977 118.987C44.9025 128.614 72.5534 128.618 89.4516 118.987C106.35 109.356 106.356 93.601 89.4516 83.9703C72.5468 74.3396 44.8959 74.3429 27.9977 83.9703Z" stroke="white" stroke-width="2" stroke-miterlimit="10"/>
</g>
<g style="mix-blend-mode:overlay">
<path d="M19.5601 80.1171C-1.98105 92.5695 -1.98105 112.944 19.5601 125.397C41.1012 137.849 76.3501 137.849 97.8879 125.397C119.426 112.944 119.429 92.5695 97.8879 80.1171C76.3468 67.6647 41.1012 67.668 19.5601 80.1171Z" stroke="white" stroke-width="2" stroke-miterlimit="10"/>
</g>
<path d="M57.2631 24.4985H54.8077L53.4899 68.7594C53.5009 68.9895 53.576 69.2119 53.7067 69.4015C53.8375 69.5911 54.0186 69.7403 54.2297 69.8324C54.788 70.1152 55.405 70.2626 56.0308 70.2626C56.6566 70.2626 57.2736 70.1152 57.8319 69.8324C58.0321 69.7431 58.2057 69.6031 58.3354 69.4263C58.4651 69.2495 58.5466 69.042 58.5717 68.8241L57.2631 24.4985Z" fill="#233396"/>
<path d="M55.1636 24.0913C55.0597 24.1279 54.9697 24.1958 54.906 24.2856C54.8423 24.3755 54.8081 24.483 54.8081 24.5932C54.8081 24.7033 54.8423 24.8108 54.906 24.9007C54.9697 24.9906 55.0597 25.0584 55.1636 25.095C55.4338 25.2319 55.7324 25.3033 56.0353 25.3033C56.3381 25.3033 56.6367 25.2319 56.9069 25.095C57.013 25.0607 57.1056 24.9937 57.1712 24.9035C57.2369 24.8134 57.2723 24.7047 57.2723 24.5932C57.2723 24.4816 57.2369 24.3729 57.1712 24.2828C57.1056 24.1926 57.013 24.1256 56.9069 24.0913C56.6367 23.9544 56.3381 23.8831 56.0353 23.8831C55.7324 23.8831 55.4338 23.9544 55.1636 24.0913Z" fill="#0F1956"/>
<path d="M57.7393 68.9582C57.7045 68.3311 57.5227 67.7209 57.2087 67.177C56.8946 66.6331 56.457 66.1707 55.9313 65.8271C55.7632 65.7109 55.5705 65.6354 55.3683 65.6065C55.166 65.5776 54.9599 65.5961 54.766 65.6606L54.7429 65.619L41.629 72.9681C41.4553 73.1002 41.3183 73.2745 41.2309 73.4744C41.1435 73.6743 41.1086 73.8932 41.1296 74.1104C41.1647 74.7375 41.3466 75.3475 41.6607 75.8914C41.9747 76.4352 42.4121 76.8977 42.9376 77.2415C43.1354 77.3918 43.3749 77.4773 43.6231 77.4864C43.8714 77.4955 44.1164 77.4278 44.3248 77.2924L57.1937 70.1376C57.3848 70.0108 57.5371 69.8334 57.6334 69.6252C57.7297 69.4169 57.7664 69.186 57.7393 68.9582Z" fill="#233396"/>
<path d="M58.3683 23.8418C58.3683 24.3314 58.2231 24.8099 57.951 25.2169C57.679 25.6239 57.2924 25.9411 56.8401 26.1282C56.3877 26.3154 55.8901 26.3641 55.4101 26.2683C54.9301 26.1724 54.4893 25.9363 54.1435 25.5898C53.7977 25.2433 53.5624 24.802 53.4675 24.3217C53.3726 23.8414 53.4222 23.3437 53.6102 22.8917C53.7981 22.4396 54.1159 22.0535 54.5234 21.7822C54.9308 21.5109 55.4095 21.3665 55.899 21.3674C56.2237 21.3674 56.5452 21.4315 56.8451 21.5559C57.1449 21.6803 57.4174 21.8626 57.6467 22.0924C57.8761 22.3223 58.0578 22.5951 58.1817 22.8952C58.3055 23.1954 58.3689 23.5171 58.3683 23.8418Z" fill="#32FCED"/>
<path d="M96.0313 87.458L94.9817 86.8429L57.434 65.1981C57.3329 65.1417 57.2259 65.0967 57.1149 65.064C56.7718 64.9661 56.4041 65.0042 56.0884 65.1704L55.9866 65.2305L21.1672 85.1872L60.0096 121.072L94.3435 101.412H94.3852L94.3482 101.439L94.4407 101.388L95.9111 100.593C96.0181 100.533 96.1149 100.457 96.1978 100.366C96.4101 100.146 96.5322 99.8537 96.54 99.5477V88.3645C96.5416 88.1822 96.4956 88.0026 96.4063 87.8436C96.3171 87.6845 96.1878 87.5516 96.0313 87.458Z" fill="#182566"/>
<path d="M21.3291 99.5894L58.7843 121.146C58.9484 121.242 59.1345 121.292 59.3242 121.293C59.514 121.294 59.7007 121.246 59.8657 121.152C60.0308 121.059 60.1685 120.923 60.2651 120.76C60.3618 120.597 60.414 120.411 60.4166 120.221V107.558C60.4131 107.37 60.361 107.186 60.2654 107.024C60.1698 106.862 60.0339 106.727 59.871 106.633L22.462 85.0671C22.2977 84.9732 22.1119 84.9237 21.9227 84.9233C21.7335 84.923 21.5474 84.9719 21.3828 85.0652C21.2182 85.1585 21.0807 85.2929 20.9837 85.4554C20.8867 85.6179 20.8337 85.8028 20.8297 85.992L20.7881 98.6413C20.7876 98.8329 20.8373 99.0212 20.9322 99.1875C21.0271 99.3539 21.164 99.4924 21.3291 99.5894Z" fill="#0F1956"/>
<path d="M22.6332 98.4376L59.4178 119.62C59.5195 119.678 59.6347 119.709 59.7518 119.708C59.8689 119.708 59.984 119.677 60.0855 119.619C60.187 119.561 60.2714 119.476 60.3303 119.375C60.3892 119.274 60.4206 119.159 60.4213 119.042V107.604C60.4206 107.487 60.389 107.372 60.3298 107.27C60.2706 107.169 60.1857 107.085 60.0837 107.026L23.3406 85.8439C23.2393 85.7854 23.1244 85.7546 23.0074 85.7546C22.8904 85.7547 22.7754 85.7856 22.6742 85.8442C22.5729 85.9028 22.4889 85.9871 22.4305 86.0885C22.3722 86.19 22.3416 86.305 22.3418 86.422L22.2956 97.8595C22.2953 97.9772 22.3265 98.0928 22.3858 98.1945C22.4452 98.2961 22.5306 98.38 22.6332 98.4376Z" fill="url(#paint0_linear)"/>
<path d="M62.4097 85.299C62.4382 85.2612 62.4694 85.2254 62.5029 85.1919C62.4694 85.2254 62.4382 85.2612 62.4097 85.299Z" fill="#0F1956"/>
<path d="M62.308 85.4241C62.3382 85.3791 62.3725 85.337 62.4106 85.2983C62.3739 85.3382 62.3396 85.3801 62.308 85.4241Z" fill="#233396"/>
<path d="M62.183 85.6359H62.2108C62.2325 85.5665 62.2619 85.4998 62.2986 85.437C62.2543 85.4997 62.2156 85.5663 62.183 85.6359Z" fill="#233396"/>
<path d="M61.4479 107.239L60.3983 106.633L22.8506 84.993C22.7495 84.9366 22.6425 84.8916 22.5315 84.8588C22.2907 84.7876 22.0353 84.7818 21.7916 84.842C21.5478 84.9021 21.3244 85.0261 21.1443 85.2011L21.1073 85.2427C21 85.356 20.9194 85.4919 20.8715 85.6405C20.8448 85.7262 20.8278 85.8146 20.8206 85.9041L22.3234 86.7689L59.7093 108.317L59.8619 108.405C60.0386 108.482 60.1867 108.613 60.2854 108.779C60.384 108.945 60.4284 109.137 60.4121 109.33V119.042C60.4121 119.042 60.4121 119.084 60.4121 119.107V120.203C60.4121 120.357 60.3785 120.51 60.3139 120.651C60.2492 120.791 60.155 120.916 60.0376 121.017L59.8156 121.183L61.3601 120.346C61.5483 120.244 61.7057 120.093 61.8162 119.909C61.9268 119.725 61.9864 119.515 61.989 119.301V108.146C61.9873 107.96 61.9364 107.778 61.8413 107.619C61.7462 107.46 61.6104 107.329 61.4479 107.239Z" fill="#233396"/>
<path d="M22.5315 84.8589C22.6425 84.8916 22.7495 84.9366 22.8505 84.993L60.4028 106.638L60.5832 106.744L94.9449 86.843L57.4342 65.2213C57.3331 65.1649 57.2261 65.1199 57.1151 65.0872C56.772 64.9893 56.4043 65.0274 56.0886 65.1935L55.9868 65.249L21.7685 84.8727C22.0162 84.7946 22.2811 84.7898 22.5315 84.8589Z" fill="#0F1956"/>
<path opacity="0.25" d="M61.4525 107.239C61.614 107.333 61.7475 107.468 61.8394 107.63C61.9312 107.793 61.978 107.977 61.975 108.164V109.089L96.5586 89.3171V88.3921C96.5622 88.2053 96.5156 88.021 96.4237 87.8583C96.3318 87.6956 96.1979 87.5605 96.0361 87.4671L94.9865 86.8428H94.9495L60.5878 106.73L61.4525 107.239Z" fill="#8C96F2"/>
<path d="M24.5984 93.9885C24.5984 93.2161 25.1487 92.9016 25.8146 93.2855C26.1684 93.516 26.4628 93.8266 26.6741 94.1922C26.8854 94.5579 27.0076 94.9682 27.0307 95.3898C27.0307 96.1622 26.4851 96.4767 25.8146 96.0882C25.4619 95.8576 25.1682 95.5475 24.957 95.1829C24.7458 94.8183 24.623 94.4092 24.5984 93.9885Z" fill="#32FCED"/>
<path d="M29.0516 96.6757C29.0516 95.9034 29.5972 95.5888 30.2677 95.9727C30.6212 96.2035 30.9155 96.5142 31.1268 96.8798C31.3381 97.2453 31.4604 97.6555 31.4839 98.0771C31.4839 98.8494 30.9382 99.1639 30.2677 98.78C29.9142 98.5493 29.6199 98.2385 29.4086 97.873C29.1974 97.5074 29.0751 97.0973 29.0516 96.6757Z" fill="#32FCED"/>
<path d="M33.4999 99.3627C33.4999 98.5904 34.0502 98.2759 34.7207 98.6597C35.0735 98.8913 35.3672 99.2022 35.5783 99.5676C35.7895 99.933 35.9123 100.343 35.9368 100.764C35.9368 101.536 35.3866 101.851 34.7207 101.467C34.3666 101.237 34.0716 100.926 33.8595 100.56C33.6475 100.195 33.5243 99.7846 33.4999 99.3627Z" fill="#32FCED"/>
<path d="M51.1362 109.612C51.1362 108.839 51.6864 108.525 52.3523 108.909C52.7061 109.139 53.0006 109.45 53.2119 109.815C53.4232 110.181 53.5454 110.591 53.5685 111.013C53.5685 111.785 53.0228 112.1 52.3523 111.711C51.9997 111.481 51.7059 111.171 51.4947 110.806C51.2835 110.441 51.1607 110.032 51.1362 109.612Z" fill="#32FCED"/>
<path d="M55.5891 112.28C55.5891 111.508 56.1347 111.193 56.8052 111.577C57.1587 111.808 57.453 112.119 57.6643 112.484C57.8755 112.85 57.9978 113.26 58.0213 113.682C58.0213 114.454 57.4757 114.768 56.8052 114.385C56.4517 114.154 56.1574 113.843 55.9461 113.477C55.7349 113.112 55.6125 112.702 55.5891 112.28Z" fill="#32FCED"/>
<path d="M104.309 47.6001H101.853L100.535 91.8656C100.548 92.0952 100.624 92.317 100.754 92.5063C100.885 92.6956 101.065 92.8452 101.275 92.9386C101.834 93.2215 102.452 93.3688 103.079 93.3688C103.705 93.3688 104.323 93.2215 104.882 92.9386C105.082 92.8482 105.255 92.7073 105.384 92.5297C105.513 92.3521 105.593 92.1439 105.617 91.9257L104.309 47.6001Z" fill="#233396"/>
<path d="M102.205 47.1932C102.099 47.2274 102.006 47.2945 101.94 47.3846C101.875 47.4748 101.839 47.5835 101.839 47.695C101.839 47.8066 101.875 47.9152 101.94 48.0054C102.006 48.0956 102.099 48.1626 102.205 48.1968C102.474 48.3337 102.772 48.4051 103.074 48.4051C103.376 48.4051 103.674 48.3337 103.943 48.1968C104.05 48.1626 104.142 48.0956 104.208 48.0054C104.273 47.9152 104.309 47.8066 104.309 47.695C104.309 47.5835 104.273 47.4748 104.208 47.3846C104.142 47.2945 104.05 47.2274 103.943 47.1932C103.673 47.0584 103.376 46.9883 103.074 46.9883C102.772 46.9883 102.475 47.0584 102.205 47.1932Z" fill="#0F1956"/>
<path d="M104.79 92.0598C104.754 91.4324 104.571 90.8222 104.256 90.2784C103.941 89.7346 103.503 89.2723 102.977 88.9287C102.809 88.8135 102.616 88.7385 102.414 88.7097C102.212 88.6808 102.006 88.6988 101.812 88.7622V88.7206L88.6932 96.065C88.5199 96.1964 88.3831 96.3699 88.2957 96.569C88.2083 96.7681 88.1732 96.9863 88.1938 97.2027C88.2291 97.8309 88.4115 98.442 88.7264 98.9867C89.0413 99.5314 89.4797 99.9944 90.0064 100.338C90.2042 100.489 90.4441 100.575 90.6927 100.583C90.9412 100.591 91.1862 100.522 91.3936 100.385L104.258 93.2345C104.445 93.1056 104.593 92.9281 104.687 92.7211C104.781 92.5141 104.816 92.2855 104.79 92.0598Z" fill="#233396"/>
<path d="M55.6632 66.8077L24.3026 84.9606L93.2525 86.732L57.5822 66.7892C57.288 66.6262 56.9566 66.5423 56.6203 66.5455C56.284 66.5487 55.9542 66.6391 55.6632 66.8077Z" fill="#172568"/>
<path d="M105.442 46.948C105.442 47.4374 105.296 47.9158 105.025 48.3227C104.753 48.7296 104.366 49.0467 103.914 49.234C103.462 49.4213 102.965 49.4703 102.485 49.3748C102.005 49.2793 101.564 49.0437 101.218 48.6976C100.872 48.3516 100.637 47.9107 100.541 47.4307C100.446 46.9507 100.495 46.4532 100.682 46.0011C100.869 45.549 101.186 45.1625 101.593 44.8906C102 44.6188 102.478 44.4736 102.968 44.4736C103.623 44.4749 104.252 44.7359 104.716 45.1997C105.179 45.6635 105.44 46.2921 105.442 46.948Z" fill="#32FCED"/>
<path d="M61.0781 74.8181C62.0084 74.6724 62.9596 74.8785 63.7462 75.3962C66.308 76.8623 68.3703 80.3727 68.3703 83.2124C68.3951 83.654 68.3318 84.096 68.1841 84.5129C68.0365 84.9297 67.8074 85.3131 67.5102 85.6405C67.1395 85.9556 66.7083 86.1917 66.2432 86.3343L64.6618 87.2038L58.3268 76.2703L60.0654 75.3454C60.3499 75.0823 60.6995 74.9002 61.0781 74.8181Z" fill="#0F1956"/>
<path d="M53.1893 61.6137C55.3765 60.4482 59.1683 59.5371 64.3334 62.3907C69.9332 65.4894 74.118 71.5944 76.4716 75.7522C77.7063 77.9352 77.4612 80.2477 75.9769 80.5483L75.2046 80.9738L73.1562 82.1208L60.3752 67.6169C59.0978 67.5156 57.8174 67.7701 56.6759 68.3523C55.7511 68.8148 54.387 68.1441 53.3882 66.7012C53.0275 66.1785 52.7593 65.6235 53.6471 64.3887L50.105 63.6256L53.1893 61.6137Z" fill="#0F1956"/>
<path d="M46.4104 49.0478C49.601 47.3458 55.7696 45.727 64.3889 50.1855C73.8035 55.0741 80.3235 64.5229 83.5049 70.0173C84.7534 72.1633 84.5407 74.4943 83.0887 74.8874C82.9824 74.9152 82.2055 75.4054 82.0899 75.41L79.9166 76.6218L69.8361 62.9134L55.9222 54.4682C53.6387 54.4275 51.3833 54.9771 49.3744 56.0638C48.4496 56.5864 47.0162 55.8372 46.0451 54.3156V54.2925L45.9942 54.2092H45.1064L43.2938 51.2307L45.0602 49.8432L46.4104 49.0478Z" fill="#0F1956"/>
<path d="M36.3762 38.3179L38.9194 36.4679C42.4661 34.0491 50.9421 30.4046 64.6155 37.3929L65.0409 37.6149C79.4774 45.1629 88.5082 58.2284 92.4341 64.9669C93.4052 66.6458 93.6641 68.1443 92.9705 69.0554L92.2676 69.7584L91.8653 69.985C91.5545 70.1814 91.2245 70.3456 90.8804 70.4753L88.5267 71.7194L84.365 65.9937L67.2559 46.3052L57.6655 41.1484C49.7814 38.9839 44.718 41.2825 42.406 42.8411C41.5089 43.4424 40.0939 42.7856 39.1321 41.301C38.6799 40.6174 38.3744 39.8472 38.235 39.0394L36.3762 38.3179Z" fill="#0F1956"/>
<path d="M36.5749 43.1092C37.5413 44.5845 38.9193 45.2459 39.8118 44.6493C42.6972 42.7114 49.9293 39.5988 61.6791 45.8287L62.0444 46.0229C74.3492 52.6921 81.8402 63.8429 84.9106 69.2309C85.9001 70.9607 87.4908 72.0059 88.6746 71.6914C90.1543 71.2937 90.3716 68.9766 89.137 66.8121C85.2713 60.1151 76.3699 47.119 62.1462 39.5618L61.7254 39.3445C48.2646 32.3561 39.895 35.9359 36.3992 38.3177C35.3264 39.0531 35.4143 41.3054 36.598 43.1092H36.5749Z" fill="url(#paint1_linear)"/>
<path d="M43.4093 56.0314C44.3712 57.5483 45.763 58.293 46.6925 57.7796C49.1062 56.4569 54.3083 54.7271 61.5173 58.5936L61.7716 58.7323C68.976 62.7005 73.9376 70.0912 76.2913 74.2259C77.2485 75.914 78.7837 76.9269 79.9166 76.6217C81.35 76.2378 81.5535 73.9438 80.3281 71.8117C77.193 66.3635 70.7609 56.9887 61.4849 52.0955C52.5466 47.4058 46.2855 49.5055 43.2937 51.2214C42.1608 51.8735 42.2117 54.1397 43.3955 56.0082L43.4093 56.0314Z" fill="url(#paint2_linear)"/>
<path d="M72.9203 82.1903C74.3862 81.899 74.622 79.605 73.3827 77.4359C71.0707 73.2965 66.9368 67.224 61.4202 64.1299C56.3337 61.2762 52.5928 62.1689 50.438 63.3112C49.208 63.9633 49.3004 66.4007 50.6322 68.3478C51.6125 69.7862 52.9442 70.4661 53.8691 69.9989C55.3626 69.2358 57.966 68.6114 61.3693 70.5493C64.9761 72.612 67.8153 76.8994 69.4107 79.7622C70.3678 81.4087 71.8198 82.4123 72.9203 82.1903Z" fill="url(#paint3_linear)"/>
<path d="M57.0458 79.0175C57.0458 81.7925 59.025 85.2196 61.5127 86.7227C64.0005 88.2258 66.1091 87.2083 66.1368 84.4102C66.1646 81.6121 64.1022 78.1064 61.5775 76.6357C59.0527 75.1649 57.0597 76.2518 57.0458 79.0175Z" fill="url(#paint4_linear)"/>
<g style="mix-blend-mode:overlay">
<g style="mix-blend-mode:overlay">
<path d="M106.944 37.0321C106.944 37.152 106.909 37.2691 106.842 37.3687C106.776 37.4684 106.681 37.546 106.571 37.5919C106.46 37.6377 106.338 37.6497 106.221 37.6264C106.103 37.603 105.995 37.5453 105.91 37.4605C105.826 37.3758 105.768 37.2679 105.745 37.1503C105.721 37.0328 105.733 36.911 105.779 36.8003C105.825 36.6896 105.903 36.5949 106.002 36.5284C106.102 36.4618 106.219 36.4263 106.339 36.4263C106.499 36.4263 106.653 36.4901 106.767 36.6037C106.881 36.7173 106.944 36.8714 106.944 37.0321Z" fill="white"/>
</g>
<g style="mix-blend-mode:overlay">
<path d="M104.355 40.5934C104.355 40.7132 104.319 40.8304 104.253 40.93C104.186 41.0297 104.092 41.1073 103.981 41.1532C103.87 41.199 103.749 41.211 103.631 41.1877C103.514 41.1643 103.406 41.1066 103.321 41.0218C103.236 40.9371 103.179 40.8291 103.155 40.7116C103.132 40.5941 103.144 40.4723 103.19 40.3616C103.235 40.2509 103.313 40.1562 103.413 40.0897C103.512 40.0231 103.629 39.9875 103.749 39.9875C103.91 39.9875 104.064 40.0514 104.178 40.165C104.291 40.2786 104.355 40.4327 104.355 40.5934Z" fill="white"/>
</g>
<g style="mix-blend-mode:overlay">
<path d="M98.8937 38.9885C98.8937 39.1083 98.8581 39.2254 98.7916 39.3251C98.725 39.4247 98.6304 39.5024 98.5197 39.5482C98.4091 39.5941 98.2873 39.6061 98.1698 39.5827C98.0523 39.5593 97.9443 39.5016 97.8596 39.4169C97.7749 39.3321 97.7172 39.2242 97.6938 39.1067C97.6705 38.9891 97.6824 38.8673 97.7283 38.7566C97.7741 38.6459 97.8518 38.5513 97.9514 38.4847C98.051 38.4181 98.1681 38.3826 98.288 38.3826C98.3677 38.382 98.4467 38.3972 98.5205 38.4274C98.5942 38.4577 98.6613 38.5023 98.7176 38.5587C98.774 38.6151 98.8186 38.6821 98.8488 38.7559C98.879 38.8297 98.8943 38.9087 98.8937 38.9885Z" fill="white"/>
</g>
<g style="mix-blend-mode:overlay">
<path d="M99.8417 44.1408C99.8417 44.2606 99.8061 44.3778 99.7396 44.4774C99.673 44.577 99.5784 44.6547 99.4677 44.7005C99.357 44.7464 99.2352 44.7584 99.1177 44.735C99.0002 44.7116 98.8923 44.6539 98.8076 44.5692C98.7228 44.4845 98.6651 44.3765 98.6418 44.259C98.6184 44.1415 98.6304 44.0196 98.6762 43.9089C98.7221 43.7982 98.7997 43.7036 98.8993 43.637C98.999 43.5704 99.1161 43.5349 99.2359 43.5349C99.3966 43.5349 99.5506 43.5987 99.6642 43.7124C99.7778 43.826 99.8417 43.9801 99.8417 44.1408Z" fill="white"/>
</g>
<g style="mix-blend-mode:overlay">
<path d="M100.887 34.1508C100.887 34.2706 100.851 34.3878 100.785 34.4874C100.718 34.587 100.624 34.6647 100.513 34.7105C100.402 34.7564 100.28 34.7684 100.163 34.745C100.045 34.7216 99.9375 34.6639 99.8528 34.5792C99.7681 34.4945 99.7104 34.3865 99.687 34.269C99.6636 34.1515 99.6756 34.0296 99.7215 33.9189C99.7673 33.8082 99.8449 33.7136 99.9446 33.647C100.044 33.5805 100.161 33.5449 100.281 33.5449C100.442 33.5449 100.596 33.6088 100.709 33.7224C100.823 33.836 100.887 33.9901 100.887 34.1508Z" fill="white"/>
</g>
<g style="mix-blend-mode:overlay">
<path d="M95.9806 30.9782C95.9806 31.098 95.9451 31.2152 95.8785 31.3148C95.812 31.4144 95.7174 31.4921 95.6067 31.5379C95.496 31.5838 95.3742 31.5958 95.2567 31.5724C95.1392 31.549 95.0313 31.4913 94.9465 31.4066C94.8618 31.3219 94.8041 31.2139 94.7807 31.0964C94.7574 30.9789 94.7694 30.857 94.8152 30.7463C94.8611 30.6356 94.9387 30.541 95.0383 30.4744C95.1379 30.4079 95.255 30.3723 95.3749 30.3723C95.5355 30.3723 95.6896 30.4362 95.8032 30.5498C95.9168 30.6634 95.9806 30.8175 95.9806 30.9782Z" fill="white"/>
</g>
<g style="mix-blend-mode:overlay">
<path d="M103.208 28.6842C103.208 28.8041 103.173 28.9212 103.106 29.0208C103.04 29.1205 102.945 29.1981 102.834 29.244C102.724 29.2898 102.602 29.3018 102.484 29.2785C102.367 29.2551 102.259 29.1974 102.174 29.1127C102.089 29.0279 102.032 28.92 102.008 28.8024C101.985 28.6849 101.997 28.5631 102.043 28.4524C102.089 28.3417 102.166 28.2471 102.266 28.1805C102.365 28.1139 102.483 28.0784 102.602 28.0784C102.763 28.0784 102.917 28.1422 103.031 28.2558C103.144 28.3694 103.208 28.5236 103.208 28.6842Z" fill="white"/>
</g>
<g style="mix-blend-mode:overlay">
<path d="M105.904 34.3774C105.904 34.4972 105.868 34.6143 105.802 34.714C105.735 34.8136 105.641 34.8912 105.53 34.9371C105.419 34.983 105.298 34.995 105.18 34.9716C105.063 34.9482 104.955 34.8905 104.87 34.8058C104.785 34.721 104.727 34.6131 104.704 34.4956C104.681 34.378 104.693 34.2562 104.739 34.1455C104.784 34.0348 104.862 33.9402 104.962 33.8736C105.061 33.807 105.178 33.7715 105.298 33.7715C105.459 33.7715 105.613 33.8353 105.727 33.9489C105.84 34.0626 105.904 34.2167 105.904 34.3774Z" fill="white"/>
</g>
<g style="mix-blend-mode:overlay">
<path d="M108.216 47.5309C108.216 47.6508 108.181 47.7679 108.114 47.8675C108.047 47.9672 107.953 48.0448 107.842 48.0907C107.731 48.1365 107.61 48.1485 107.492 48.1252C107.375 48.1018 107.267 48.0441 107.182 47.9593C107.097 47.8746 107.04 47.7666 107.016 47.6491C106.993 47.5316 107.005 47.4098 107.051 47.2991C107.096 47.1884 107.174 47.0937 107.274 47.0272C107.373 46.9606 107.49 46.925 107.61 46.925C107.771 46.925 107.925 46.9889 108.039 47.1025C108.152 47.2161 108.216 47.3702 108.216 47.5309Z" fill="white"/>
</g>
<g style="mix-blend-mode:overlay">
<path d="M106.954 23.7863C106.954 23.9061 106.918 24.0233 106.852 24.1229C106.785 24.2225 106.69 24.3002 106.58 24.346C106.469 24.3919 106.347 24.4039 106.23 24.3805C106.112 24.3571 106.004 24.2994 105.92 24.2147C105.835 24.13 105.777 24.022 105.754 23.9045C105.73 23.787 105.742 23.6651 105.788 23.5544C105.834 23.4437 105.912 23.3491 106.011 23.2825C106.111 23.216 106.228 23.1804 106.348 23.1804C106.509 23.1804 106.663 23.2443 106.776 23.3579C106.89 23.4715 106.954 23.6256 106.954 23.7863Z" fill="white"/>
</g>
</g>
<g style="mix-blend-mode:overlay">
<g style="mix-blend-mode:overlay">
<path d="M59.5197 13.8517C59.5197 13.9716 59.4842 14.0887 59.4176 14.1883C59.351 14.288 59.2564 14.3656 59.1457 14.4115C59.035 14.4573 58.9133 14.4693 58.7958 14.446C58.6783 14.4226 58.5703 14.3649 58.4856 14.2802C58.4009 14.1954 58.3432 14.0875 58.3198 13.9699C58.2964 13.8524 58.3084 13.7306 58.3543 13.6199C58.4001 13.5092 58.4778 13.4145 58.5774 13.348C58.677 13.2814 58.7941 13.2459 58.9139 13.2459C58.9937 13.2453 59.0727 13.2605 59.1465 13.2907C59.2202 13.321 59.2873 13.3656 59.3436 13.422C59.4 13.4783 59.4446 13.5454 59.4748 13.6192C59.5051 13.6929 59.5203 13.772 59.5197 13.8517Z" fill="white"/>
</g>
<g style="mix-blend-mode:overlay">
<path d="M56.9303 17.3944C56.9303 17.5143 56.8948 17.6314 56.8282 17.731C56.7617 17.8307 56.6671 17.9083 56.5564 17.9542C56.4457 18.0001 56.3239 18.0121 56.2064 17.9887C56.0889 17.9653 55.981 17.9076 55.8962 17.8229C55.8115 17.7381 55.7538 17.6302 55.7304 17.5126C55.7071 17.3951 55.7191 17.2733 55.7649 17.1626C55.8108 17.0519 55.8884 16.9573 55.988 16.8907C56.0876 16.8241 56.2048 16.7886 56.3246 16.7886C56.4852 16.7886 56.6393 16.8524 56.7529 16.966C56.8665 17.0797 56.9303 17.2338 56.9303 17.3944Z" fill="white"/>
</g>
<g style="mix-blend-mode:overlay">
<path d="M51.4737 15.8081C51.4737 15.9283 51.4379 16.0458 51.371 16.1456C51.304 16.2455 51.2088 16.3231 51.0976 16.3687C50.9864 16.4142 50.8641 16.4257 50.7463 16.4016C50.6286 16.3774 50.5207 16.3188 50.4364 16.2331C50.352 16.1475 50.2951 16.0387 50.2727 15.9205C50.2504 15.8024 50.2637 15.6803 50.311 15.5698C50.3583 15.4592 50.4374 15.3653 50.5382 15.2998C50.639 15.2344 50.757 15.2004 50.8772 15.2022C51.0359 15.2058 51.1869 15.2711 51.2983 15.3842C51.4096 15.4973 51.4726 15.6494 51.4737 15.8081Z" fill="white"/>
</g>
<g style="mix-blend-mode:overlay">
<path d="M52.4171 20.9604C52.4171 21.0802 52.3816 21.1973 52.315 21.297C52.2484 21.3966 52.1538 21.4743 52.0431 21.5201C51.9325 21.566 51.8107 21.578 51.6932 21.5546C51.5756 21.5312 51.4677 21.4735 51.383 21.3888C51.2983 21.304 51.2406 21.1961 51.2172 21.0786C51.1938 20.961 51.2058 20.8392 51.2517 20.7285C51.2975 20.6178 51.3752 20.5232 51.4748 20.4566C51.5744 20.39 51.6915 20.3545 51.8113 20.3545C51.972 20.3545 52.1261 20.4183 52.2397 20.5319C52.3533 20.6456 52.4171 20.7997 52.4171 20.9604Z" fill="white"/>
</g>
<g style="mix-blend-mode:overlay">
<path d="M53.4667 10.9936C53.4676 11.1147 53.4325 11.2334 53.3658 11.3345C53.2991 11.4356 53.2038 11.5145 53.0921 11.5613C52.9803 11.6081 52.8572 11.6206 52.7384 11.5972C52.6196 11.5738 52.5104 11.5155 52.4247 11.4299C52.3391 11.3442 52.2809 11.235 52.2575 11.1162C52.2341 10.9973 52.2465 10.8742 52.2933 10.7624C52.3401 10.6507 52.419 10.5554 52.5201 10.4887C52.6212 10.4219 52.7399 10.3868 52.861 10.3877C53.0216 10.3877 53.1757 10.4515 53.2893 10.5652C53.4029 10.6788 53.4667 10.8329 53.4667 10.9936Z" fill="white"/>
</g>
<g style="mix-blend-mode:overlay">
<path d="M48.5653 7.80239C48.5644 7.92202 48.5281 8.0387 48.4609 8.13772C48.3938 8.23675 48.2989 8.31369 48.1881 8.35884C48.0774 8.40398 47.9557 8.41532 47.8385 8.39143C47.7213 8.36753 47.6138 8.30946 47.5296 8.22455C47.4453 8.13963 47.3881 8.03167 47.3651 7.91427C47.3421 7.79687 47.3543 7.67529 47.4003 7.56485C47.4463 7.45441 47.5239 7.36006 47.6235 7.29369C47.723 7.22732 47.8399 7.1919 47.9595 7.19189C48.0394 7.19189 48.1186 7.20772 48.1924 7.23845C48.2662 7.26919 48.3332 7.31423 48.3895 7.37098C48.4458 7.42773 48.4903 7.49507 48.5205 7.56911C48.5507 7.64316 48.5659 7.72244 48.5653 7.80239Z" fill="white"/>
</g>
<g style="mix-blend-mode:overlay">
<path d="M55.7836 5.50357C55.7836 5.6234 55.7481 5.74054 55.6815 5.84018C55.615 5.93981 55.5203 6.01747 55.4097 6.06332C55.299 6.10918 55.1772 6.12118 55.0597 6.0978C54.9422 6.07442 54.8342 6.01672 54.7495 5.93199C54.6648 5.84726 54.6071 5.7393 54.5837 5.62177C54.5603 5.50425 54.5723 5.38243 54.6182 5.27172C54.664 5.16101 54.7417 5.06639 54.8413 4.99981C54.9409 4.93324 55.058 4.89771 55.1778 4.89771C55.3385 4.89771 55.4926 4.96154 55.6062 5.07516C55.7198 5.18878 55.7836 5.34289 55.7836 5.50357Z" fill="white"/>
</g>
<g style="mix-blend-mode:overlay">
<path d="M58.4746 11.1969C58.4746 11.3168 58.4391 11.4339 58.3726 11.5335C58.306 11.6332 58.2114 11.7108 58.1007 11.7567C57.99 11.8025 57.8682 11.8145 57.7507 11.7912C57.6332 11.7678 57.5253 11.7101 57.4405 11.6254C57.3558 11.5406 57.2981 11.4327 57.2748 11.3151C57.2514 11.1976 57.2634 11.0758 57.3092 10.9651C57.3551 10.8544 57.4327 10.7597 57.5323 10.6932C57.632 10.6266 57.7491 10.5911 57.8689 10.5911C58.0295 10.5911 58.1836 10.6549 58.2972 10.7685C58.4108 10.8821 58.4746 11.0363 58.4746 11.1969Z" fill="white"/>
</g>
<g style="mix-blend-mode:overlay">
<path d="M60.8052 24.3412C60.8052 24.4611 60.7697 24.5782 60.7031 24.6778C60.6366 24.7775 60.542 24.8551 60.4313 24.901C60.3206 24.9468 60.1988 24.9588 60.0813 24.9355C59.9638 24.9121 59.8559 24.8544 59.7712 24.7696C59.6865 24.6849 59.6288 24.577 59.6054 24.4594C59.582 24.3419 59.594 24.2201 59.6399 24.1094C59.6857 23.9987 59.7633 23.904 59.863 23.8375C59.9626 23.7709 60.0797 23.7354 60.1995 23.7354C60.3601 23.7354 60.5142 23.7992 60.6278 23.9128C60.7414 24.0264 60.8052 24.1805 60.8052 24.3412Z" fill="white"/>
</g>
<g style="mix-blend-mode:overlay">
<path d="M59.529 0.605869C59.529 0.725698 59.4934 0.842838 59.4269 0.942473C59.3603 1.04211 59.2657 1.11976 59.155 1.16562C59.0443 1.21148 58.9225 1.22347 58.805 1.2001C58.6875 1.17672 58.5796 1.11901 58.4949 1.03428C58.4102 0.94955 58.3525 0.841596 58.3291 0.724069C58.3057 0.606541 58.3177 0.484719 58.3635 0.37401C58.4094 0.263302 58.487 0.16868 58.5867 0.102106C58.6863 0.0355323 58.8034 0 58.9232 0C59.0839 0 59.2379 0.0638324 59.3515 0.177455C59.4651 0.291078 59.529 0.445182 59.529 0.605869Z" fill="white"/>
</g>
</g>
<defs>
<linearGradient id="paint0_linear" x1="22.2956" y1="102.734" x2="60.4213" y2="102.734" gradientUnits="userSpaceOnUse">
<stop offset="0.11" stop-color="#9075FF"/>
<stop offset="0.82" stop-color="#527CE0"/>
</linearGradient>
<linearGradient id="paint1_linear" x1="31627.9" y1="8476.88" x2="25674.8" y2="1466.89" gradientUnits="userSpaceOnUse">
<stop offset="0.11" stop-color="#9075FF"/>
<stop offset="0.82" stop-color="#527CE0"/>
</linearGradient>
<linearGradient id="paint2_linear" x1="22109.9" y1="6780.69" x2="17600.2" y2="1752.24" gradientUnits="userSpaceOnUse">
<stop offset="0.11" stop-color="#9075FF"/>
<stop offset="0.82" stop-color="#527CE0"/>
</linearGradient>
<linearGradient id="paint3_linear" x1="13853.1" y1="5220.37" x2="10548" y2="2001.14" gradientUnits="userSpaceOnUse">
<stop offset="0.11" stop-color="#9075FF"/>
<stop offset="0.82" stop-color="#527CE0"/>
</linearGradient>
<linearGradient id="paint4_linear" x1="4974.6" y1="3119.43" x2="3678.38" y2="2303.9" gradientUnits="userSpaceOnUse">
<stop offset="0.11" stop-color="#9075FF"/>
<stop offset="0.82" stop-color="#527CE0"/>
</linearGradient>
</defs>
</svg>
