<svg width="475" height="378" viewBox="0 0 475 378" fill="none" xmlns="http://www.w3.org/2000/svg">
<g clip-path="url(#clip0)">
<g opacity="0.4">
<path opacity="0.4" d="M438.247 104.469L401.459 83.2249L438.247 61.9805L438.565 62.1687L475.012 83.2249L438.247 104.469ZM404.034 83.2249L438.247 102.964L472.343 83.2249L438.247 63.4392L404.034 83.2249Z" fill="white"/>
<path opacity="0.4" d="M367.246 104.469L330.47 83.2249L367.246 61.9805L404.034 83.2249L367.246 104.469ZM333.068 83.2249L367.246 102.964L401.424 83.2249L367.246 63.4392L333.068 83.2249Z" fill="white"/>
<path opacity="0.4" d="M402.729 124.973L402.4 124.784L365.953 103.717L402.741 82.4721L439.517 103.717L402.729 124.973ZM368.551 103.717L402.729 123.432L436.907 103.681L402.729 83.9425L368.551 103.717Z" fill="white"/>
<path opacity="0.4" d="M438.248 145.464L437.918 145.276L401.471 124.22L438.248 102.964L438.565 103.152L475.012 124.22L438.248 145.464ZM404.034 124.22L438.248 143.959L472.343 124.22L438.248 104.469L404.034 124.22Z" fill="white"/>
<path opacity="0.4" d="M296.291 104.469L295.962 104.281L259.515 83.2249L296.303 61.9805L296.621 62.1687L333.068 83.2249L296.291 104.469ZM262.113 83.2249L296.291 102.964L330.469 83.2249L296.291 63.4392L262.113 83.2249Z" fill="white"/>
<path opacity="0.4" d="M331.775 124.973L294.987 103.717L331.775 82.4721L368.551 103.717L331.775 124.973ZM297.597 103.717L331.775 123.432L365.941 103.681L331.775 83.9425L297.597 103.717Z" fill="white"/>
<path opacity="0.4" d="M367.246 145.464L366.929 145.276L330.481 124.22L367.258 102.964L367.587 103.152L404.034 124.22L367.246 145.464ZM333.068 124.22L367.246 143.959L401.424 124.22L367.246 104.469L333.068 124.22Z" fill="white"/>
<path opacity="0.4" d="M402.729 165.956L402.4 165.768L365.953 144.711L402.729 123.432L403.058 123.62L439.505 144.676L402.729 165.956ZM368.551 144.711L402.729 164.45L436.907 144.711L402.729 124.973L368.551 144.711Z" fill="white"/>
<path opacity="0.4" d="M438.247 186.447L437.918 186.259L401.471 165.203L438.247 143.959L475.024 165.203L438.247 186.447ZM404.034 165.203L438.247 184.942L472.343 165.203L438.247 145.464L404.034 165.203Z" fill="white"/>
<path opacity="0.4" d="M225.326 104.469L225.008 104.281L188.561 83.2249L225.326 61.9805L225.655 62.1687L262.102 83.2249L225.326 104.469ZM191.148 83.2249L225.326 102.964L259.539 83.2249L225.326 63.4392L191.148 83.2249Z" fill="white"/>
<path opacity="0.4" d="M260.808 124.961L260.491 124.773L224.044 103.717L260.82 82.4721L261.149 82.6603L297.597 103.717L260.808 124.961ZM226.619 103.717L260.808 123.432L294.986 103.693L260.808 83.9543L226.619 103.717Z" fill="white"/>
<path opacity="0.4" d="M296.291 145.464L295.962 145.276L259.515 124.208L296.303 102.964L333.079 124.22L296.291 145.464ZM262.113 124.208L296.291 143.959L330.469 124.22L296.291 104.469L262.113 124.208Z" fill="white"/>
<path opacity="0.4" d="M331.775 165.956L294.987 144.711L331.775 123.432L332.092 123.62L368.539 144.676L331.775 165.956ZM297.597 144.711L331.775 164.45L365.953 144.711L331.775 124.973L297.597 144.711Z" fill="white"/>
<path opacity="0.4" d="M367.246 186.447L366.929 186.259L330.481 165.203L367.258 143.959L367.587 144.147L404.034 165.203L367.246 186.447ZM333.068 165.203L367.246 184.942L401.424 165.203L367.246 145.464L333.068 165.203Z" fill="white"/>
<path opacity="0.4" d="M402.729 206.951L402.411 206.762L365.964 185.695L402.741 164.45L403.07 164.638L439.517 185.695L402.729 206.951ZM368.551 185.695L402.729 205.445L436.907 185.695L402.729 165.956L368.551 185.695Z" fill="white"/>
<path opacity="0.4" d="M438.248 227.442L437.918 227.254L401.471 206.198L438.248 184.942L438.565 185.13L475.012 206.198L438.248 227.442ZM404.034 206.198L438.248 225.937L472.343 206.198L438.248 186.447L404.034 206.198Z" fill="white"/>
<path opacity="0.4" d="M154.371 104.469L154.042 104.281L117.595 83.2249L154.383 61.9805L154.7 62.1687L191.147 83.2249L154.371 104.469ZM120.193 83.2249L154.371 102.964L188.549 83.2249L154.371 63.4392L120.193 83.2249Z" fill="white"/>
<path opacity="0.4" d="M189.854 124.961L153.066 103.717L189.854 82.4721L190.172 82.6603L226.619 103.717L189.854 124.961ZM155.676 103.717L189.854 123.432L224.032 103.693L189.854 83.9543L155.676 103.717Z" fill="white"/>
<path opacity="0.4" d="M225.337 145.464L225.008 145.276L188.561 124.208L225.326 102.964L225.655 103.152L262.102 124.208L225.337 145.464ZM191.148 124.208L225.337 143.959L259.539 124.208L225.326 104.469L191.148 124.208Z" fill="white"/>
<path opacity="0.4" d="M260.808 165.956L260.491 165.768L224.044 144.711L260.808 123.432L261.138 123.632L297.585 144.688L260.808 165.956ZM226.619 144.711L260.797 164.45L294.975 144.711L260.808 124.961L226.619 144.711Z" fill="white"/>
<path opacity="0.4" d="M296.292 186.447L259.539 165.203L296.315 143.959L333.092 165.203L296.292 186.447ZM262.114 165.203L296.292 184.942L330.47 165.203L296.292 145.464L262.114 165.203Z" fill="white"/>
<path opacity="0.4" d="M331.775 206.951L331.446 206.762L294.999 185.695L331.787 164.45L332.104 164.638L368.551 185.695L331.775 206.951ZM297.597 185.695L331.775 205.445L365.953 185.695L331.775 165.956L297.597 185.695Z" fill="white"/>
<path opacity="0.4" d="M367.246 227.442L330.47 206.198L367.246 184.942L367.575 185.13L404.022 206.198L367.246 227.442ZM333.068 206.198L367.246 225.937L401.424 206.198L367.246 186.447L333.068 206.198Z" fill="white"/>
<path opacity="0.4" d="M402.729 247.934L402.411 247.746L365.964 226.689L402.741 205.445L403.07 205.633L439.517 226.689L402.729 247.934ZM368.551 226.689L402.729 246.428L436.907 226.689L402.729 206.951L368.551 226.689Z" fill="white"/>
<path opacity="0.4" d="M438.247 268.437L437.918 268.249L401.471 247.181L438.247 225.937L438.577 226.125L475.024 247.181L438.247 268.437ZM404.034 247.181L438.247 266.943L472.343 247.181L438.247 227.442L404.034 247.181Z" fill="white"/>
<path opacity="0.4" d="M83.4164 104.469L83.0872 104.281L46.6401 83.2249L83.4164 61.9805L83.7456 62.1687L120.193 83.2249L83.4164 104.469ZM49.2267 83.2249L83.4164 102.964L117.583 83.2249L83.4047 63.4392L49.2267 83.2249Z" fill="white"/>
<path opacity="0.4" d="M118.888 124.961L118.571 124.773L82.1235 103.717L118.9 82.4721L119.229 82.6603L155.676 103.717L118.888 124.961ZM84.7101 103.717L118.888 123.432L153.066 103.693L118.888 83.9543L84.7101 103.717Z" fill="white"/>
<path opacity="0.4" d="M154.371 145.464L154.042 145.276L117.595 124.208L154.371 102.964L191.147 124.208L154.371 145.464ZM120.193 124.208L154.371 143.959L188.549 124.208L154.371 104.469L120.193 124.208Z" fill="white"/>
<path opacity="0.4" d="M189.854 165.956L153.066 144.711L189.854 123.432L190.172 123.632L226.619 144.688L189.854 165.956ZM155.676 144.711L189.854 164.45L224.032 144.711L189.854 124.961L155.676 144.711Z" fill="white"/>
<path opacity="0.4" d="M225.337 186.447L225.008 186.259L188.561 165.203L225.349 143.959L225.667 144.147L262.114 165.203L225.337 186.447ZM191.159 165.203L225.337 184.942L259.539 165.203L225.361 145.464L191.159 165.203Z" fill="white"/>
<path opacity="0.4" d="M260.809 206.951L224.032 185.695L260.809 164.45L297.597 185.695L260.809 206.951ZM226.619 185.695L260.797 205.445L294.975 185.695L260.797 165.956L226.619 185.695Z" fill="white"/>
<path opacity="0.4" d="M296.291 227.442L295.962 227.254L259.515 206.198L296.291 184.942L296.621 185.13L333.068 206.198L296.291 227.442ZM262.113 206.198L296.291 225.937L330.469 206.198L296.291 186.447L262.113 206.198Z" fill="white"/>
<path opacity="0.4" d="M331.775 247.934L331.446 247.746L294.999 226.689L331.787 205.445L368.563 226.689L331.775 247.934ZM297.597 226.689L331.775 246.428L365.953 226.689L331.775 206.951L297.597 226.689Z" fill="white"/>
<path opacity="0.4" d="M367.258 268.437L330.47 247.181L367.246 225.937L367.575 226.125L404.022 247.181L367.258 268.437ZM333.08 247.181L367.258 266.943L401.436 247.193L367.246 227.454L333.08 247.181Z" fill="white"/>
<path opacity="0.4" d="M402.729 288.929L402.411 288.741L365.964 267.684L402.741 246.428L403.07 246.616L439.517 267.684L402.729 288.929ZM368.551 267.684L402.729 287.423L436.907 267.684L402.729 247.934L368.551 267.684Z" fill="white"/>
<path opacity="0.4" d="M438.247 309.42L437.93 309.232L401.483 288.176L438.247 266.943L438.577 267.131L475.024 288.188L438.247 309.42ZM404.034 288.176L438.247 307.915L472.343 288.176L438.247 268.437L404.034 288.176Z" fill="white"/>
<path opacity="0.4" d="M83.4169 145.464L83.0877 145.276L46.6406 124.208L83.4169 102.964L83.7344 103.152L120.182 124.208L83.4169 145.464ZM49.239 124.208L83.4169 143.959L117.595 124.208L83.4169 104.469L49.239 124.208Z" fill="white"/>
<path opacity="0.4" d="M118.888 165.956L118.571 165.768L82.1235 144.711L118.888 123.432L119.217 123.62L155.664 144.688L118.888 165.956ZM84.7101 144.711L118.888 164.45L153.066 144.711L118.888 124.961L84.7101 144.711Z" fill="white"/>
<path opacity="0.4" d="M154.371 186.447L154.054 186.259L117.607 165.203L154.383 143.959L191.171 165.203L154.371 186.447ZM120.194 165.203L154.371 184.942L188.549 165.203L154.371 145.464L120.194 165.203Z" fill="white"/>
<path opacity="0.4" d="M189.854 206.951L189.525 206.762L153.078 185.706L189.866 164.462L190.184 164.65L226.631 185.706L189.854 206.951ZM155.676 185.706L189.854 205.457L224.032 185.706L189.854 165.968L155.676 185.706Z" fill="white"/>
<path opacity="0.4" d="M225.337 227.442L188.549 206.198L225.337 184.942L262.114 206.198L225.337 227.442ZM191.159 206.198L225.337 225.937L259.539 206.198L225.361 186.447L191.159 206.198Z" fill="white"/>
<path opacity="0.4" d="M260.809 247.934L224.032 226.689L260.809 205.445L261.138 205.633L297.585 226.689L260.809 247.934ZM226.619 226.689L260.797 246.428L294.975 226.689L260.809 206.951L226.619 226.689Z" fill="white"/>
<path opacity="0.4" d="M296.291 268.425L295.974 268.237L259.527 247.181L296.303 225.937L296.632 226.125L333.079 247.181L296.291 268.425ZM262.113 247.181L296.291 266.943L330.469 247.205L296.291 227.466L262.113 247.181Z" fill="white"/>
<path opacity="0.4" d="M331.775 288.929L331.446 288.741L294.999 267.673L331.787 246.428L368.563 267.684L331.775 288.929ZM297.597 267.673L331.775 287.423L365.953 267.684L331.775 247.934L297.597 267.673Z" fill="white"/>
<path opacity="0.4" d="M367.258 309.42L366.929 309.232L330.481 288.176L367.258 266.943L367.575 267.131L404.022 288.188L367.258 309.42ZM333.08 288.176L367.258 307.915L401.436 288.176L367.258 268.437L333.08 288.176Z" fill="white"/>
<path opacity="0.4" d="M402.729 329.912L365.953 308.667L402.729 287.423L403.058 287.611L439.505 308.667L402.729 329.912ZM368.551 308.667L402.729 328.406L436.907 308.667L402.729 288.929L368.551 308.667Z" fill="white"/>
<path opacity="0.4" d="M438.247 350.462L437.93 350.274L401.483 329.206L438.247 307.915L438.577 308.103L475.024 329.159L438.247 350.462ZM404.034 329.159L438.247 348.91L472.343 329.159L438.247 309.42L404.034 329.159Z" fill="white"/>
<path opacity="0.4" d="M83.417 186.447L46.6289 165.203L83.417 143.959L83.7344 144.147L120.182 165.203L83.417 186.447ZM49.239 165.203L83.417 184.942L117.595 165.203L83.417 145.464L49.239 165.203Z" fill="white"/>
<path opacity="0.4" d="M118.888 206.951L118.571 206.762L82.1235 185.706L118.9 164.462L119.229 164.65L155.676 185.706L118.888 206.951ZM84.7101 185.695L118.888 205.445L153.066 185.695L118.888 165.956L84.7101 185.695Z" fill="white"/>
<path opacity="0.4" d="M154.371 227.442L154.054 227.254L117.607 206.198L154.383 184.942L154.712 185.13L191.16 206.198L154.371 227.442ZM120.194 206.198L154.371 225.937L188.549 206.198L154.371 186.447L120.194 206.198Z" fill="white"/>
<path opacity="0.4" d="M189.854 247.934L189.525 247.746L153.078 226.689L189.854 205.445L226.619 226.689L189.854 247.934ZM155.676 226.689L189.854 246.428L224.032 226.689L189.854 206.951L155.676 226.689Z" fill="white"/>
<path opacity="0.4" d="M225.337 268.425L188.549 247.181L225.337 225.937L262.114 247.181L225.337 268.425ZM191.159 247.181L225.337 266.943L259.539 247.181L225.361 227.442L191.159 247.181Z" fill="white"/>
<path opacity="0.4" d="M260.809 288.929L224.032 267.673L260.809 246.428L261.138 246.616L297.585 267.673L260.809 288.929ZM226.619 267.673L260.797 287.423L294.975 267.673L260.797 247.934L226.619 267.673Z" fill="white"/>
<path opacity="0.4" d="M296.292 309.42L295.986 309.291L259.539 288.235L296.292 266.943L296.621 267.143L333.068 288.199L296.292 309.42ZM262.114 288.176L296.292 307.915L330.47 288.176L296.292 268.425L262.114 288.176Z" fill="white"/>
<path opacity="0.4" d="M331.775 329.912L331.446 329.724L294.999 308.667L331.775 287.423L332.104 287.611L368.551 308.667L331.775 329.912ZM297.597 308.667L331.775 328.406L365.953 308.667L331.775 288.929L297.597 308.667Z" fill="white"/>
<path opacity="0.4" d="M367.258 350.462L366.929 350.274L330.481 329.206L367.27 307.962L404.046 329.206L367.258 350.462ZM333.08 329.206L367.258 348.957L401.436 329.206L367.258 309.467L333.08 329.206Z" fill="white"/>
<path opacity="0.4" d="M83.417 227.442L46.6289 206.186L83.417 184.942L83.7344 185.13L120.182 206.198L83.417 227.442ZM49.239 206.186L83.417 225.937L117.595 206.198L83.417 186.447L49.239 206.186Z" fill="white"/>
<path opacity="0.4" d="M118.9 247.934L118.571 247.746L82.1235 226.689L118.9 205.445L119.229 205.633L155.676 226.689L118.9 247.934ZM84.7219 226.689L118.9 246.428L153.078 226.689L118.888 206.951L84.7219 226.689Z" fill="white"/>
<path opacity="0.4" d="M154.371 268.425L154.054 268.237L117.607 247.181L154.383 225.937L154.712 226.125L191.16 247.181L154.371 268.425ZM120.194 247.181L154.371 266.943L188.549 247.205L154.371 227.466L120.194 247.181Z" fill="white"/>
<path opacity="0.4" d="M189.854 288.929L153.078 267.673L189.854 246.428L226.619 267.673L189.854 288.929ZM155.676 267.673L189.854 287.423L224.032 267.673L189.854 247.934L155.676 267.673Z" fill="white"/>
<path opacity="0.4" d="M225.337 309.42L225.008 309.232L188.561 288.176L225.337 266.943L262.114 288.199L225.337 309.42ZM191.159 288.176L225.337 307.915L259.539 288.176L225.361 268.425L191.159 288.176Z" fill="white"/>
<path opacity="0.4" d="M260.82 329.912L224.032 308.667L260.809 287.423L261.138 287.611L297.585 308.667L260.82 329.912ZM226.619 308.667L260.797 328.406L294.975 308.667L260.785 288.929L226.619 308.667Z" fill="white"/>
<path opacity="0.4" d="M296.291 350.462L295.974 350.274L259.527 329.206L296.303 307.962L296.632 308.15L333.079 329.206L296.291 350.462ZM262.113 329.206L296.291 348.957L330.469 329.206L296.291 309.467L262.113 329.206Z" fill="white"/>
<path opacity="0.4" d="M83.4169 268.425L83.0877 268.237L46.6406 247.181L83.4287 225.937L83.7461 226.125L120.193 247.181L83.4169 268.425ZM49.239 247.181L83.4169 266.943L117.595 247.205L83.4169 227.442L49.239 247.181Z" fill="white"/>
<path opacity="0.4" d="M118.9 288.929L82.1118 267.673L118.9 246.428L119.217 246.616L155.664 267.673L118.9 288.929ZM84.7219 267.673L118.9 287.423L153.078 267.673L118.9 247.934L84.7219 267.673Z" fill="white"/>
<path opacity="0.4" d="M154.371 309.42L154.054 309.232L117.607 288.176L154.371 266.943L191.16 288.199L154.371 309.42ZM120.194 288.176L154.371 307.915L188.549 288.176L154.371 268.425L120.194 288.176Z" fill="white"/>
<path opacity="0.4" d="M189.854 329.912L153.078 308.667L189.854 287.423L190.184 287.611L226.631 308.667L189.854 329.912ZM155.676 308.667L189.854 328.406L224.032 308.667L189.854 288.929L155.676 308.667Z" fill="white"/>
<path opacity="0.4" d="M225.337 350.462L225.008 350.274L188.561 329.218L225.349 307.973L262.125 329.218L225.337 350.462ZM191.159 329.218L225.337 348.968L259.539 329.159L225.361 309.42L191.159 329.218Z" fill="white"/>
<path opacity="0.4" d="M83.4169 309.42L83.0877 309.232L46.6406 288.176L83.4169 266.943L120.193 288.199L83.4169 309.42ZM49.239 288.176L83.4169 307.915L117.595 288.176L83.4169 268.425L49.239 288.176Z" fill="white"/>
<path opacity="0.4" d="M118.9 329.912L118.571 329.724L82.1235 308.667L118.912 287.423L119.229 287.611L155.676 308.667L118.9 329.912ZM84.7219 308.667L118.9 328.406L153.078 308.667L118.9 288.929L84.7219 308.667Z" fill="white"/>
<path opacity="0.4" d="M154.371 350.462L117.595 329.218L154.371 307.973L191.159 329.218L154.371 350.462ZM120.205 329.218L154.371 348.968L188.549 329.218L154.371 309.479L120.205 329.218Z" fill="white"/>
<path opacity="0.4" d="M83.4169 350.462L83.0877 350.274L46.6406 329.218L83.4169 307.973L83.7461 308.162L120.193 329.218L83.4169 350.462ZM49.239 329.218L83.4169 348.957L117.595 329.218L83.4169 309.42L49.239 329.218Z" fill="white"/>
</g>
<path d="M46.9815 240.535C46.2674 240.956 45.5977 241.449 44.9828 242.005C44.7006 232.983 38.1872 229.395 30.1688 234.018C23.6436 237.794 18.106 245.875 16.119 253.78C14.1726 253.623 12.228 254.106 10.5814 255.156C4.70285 258.544 0 266.755 0 273.507C0 280.259 4.70285 282.988 10.5814 279.612L47.0285 258.591C49.3038 257.108 51.1976 255.11 52.556 252.757C53.9145 250.405 54.6994 247.765 54.847 245.052C54.8 240.064 51.2964 238.041 46.9815 240.535Z" fill="white"/>
<path d="M329.364 295.822C329.302 297.015 328.959 298.176 328.362 299.211C327.766 300.245 326.932 301.124 325.931 301.774C324.038 302.868 322.498 301.986 322.498 299.798C322.562 298.606 322.906 297.445 323.502 296.411C324.099 295.376 324.931 294.498 325.931 293.846C327.836 292.752 329.364 293.634 329.364 295.822Z" fill="white"/>
<path d="M340.487 289.399C340.423 290.59 340.081 291.75 339.486 292.784C338.892 293.818 338.063 294.698 337.065 295.351C335.161 296.445 333.632 295.551 333.632 293.363C333.704 292.183 334.052 291.035 334.649 290.013C335.245 288.992 336.073 288.125 337.065 287.482C338.958 286.329 340.487 287.211 340.487 289.399Z" fill="white"/>
<path d="M351.621 282.977C351.555 284.167 351.21 285.325 350.614 286.357C350.017 287.389 349.186 288.266 348.187 288.917C346.295 290.023 344.754 289.129 344.754 286.941C344.82 285.749 345.165 284.589 345.761 283.555C346.358 282.521 347.189 281.642 348.187 280.989C350.069 279.883 351.621 280.789 351.621 282.977Z" fill="white"/>
<path d="M362.743 276.554C362.678 277.744 362.333 278.902 361.736 279.935C361.14 280.967 360.308 281.844 359.31 282.494C357.417 283.588 355.877 282.706 355.877 280.518C355.943 279.326 356.287 278.166 356.884 277.132C357.48 276.098 358.311 275.219 359.31 274.566C361.203 273.472 362.743 274.354 362.743 276.554Z" fill="white"/>
<path d="M169.15 357.203C169.084 358.395 168.739 359.554 168.143 360.588C167.547 361.622 166.716 362.502 165.717 363.155C163.812 364.249 162.284 363.367 162.284 361.167C162.346 359.976 162.69 358.816 163.287 357.784C163.884 356.751 164.716 355.875 165.717 355.226C167.61 354.132 169.15 355.015 169.15 357.203Z" fill="white"/>
<path d="M178.614 351.733C178.551 352.925 178.206 354.086 177.61 355.12C177.013 356.154 176.181 357.033 175.181 357.685C173.288 358.779 171.748 357.897 171.748 355.697C171.814 354.507 172.159 353.348 172.755 352.316C173.351 351.284 174.183 350.407 175.181 349.756C177.074 348.662 178.614 349.545 178.614 351.733Z" fill="white"/>
<path d="M169.15 346.275C169.084 347.465 168.739 348.623 168.143 349.655C167.546 350.687 166.715 351.564 165.717 352.215C163.812 353.309 162.284 352.427 162.284 350.239C162.346 349.046 162.689 347.885 163.286 346.85C163.882 345.815 164.715 344.937 165.717 344.287C167.61 343.193 169.15 344.075 169.15 346.275Z" fill="white"/>
<path d="M178.614 340.805C178.54 341.985 178.19 343.131 177.594 344.153C176.998 345.174 176.172 346.041 175.181 346.686C173.288 347.78 171.748 346.898 171.748 344.71C171.814 343.518 172.159 342.358 172.755 341.324C173.351 340.29 174.182 339.411 175.181 338.758C177.074 337.723 178.614 338.605 178.614 340.805Z" fill="white"/>
<path d="M137.347 83.1191L130.48 87.0833V79.1549L137.347 75.1906V83.1191Z" fill="white"/>
<path d="M146.87 77.5433L140.004 81.5075V73.5791L146.87 69.6149V77.5433Z" fill="white"/>
<path d="M137.406 93.4001L130.54 97.3643V89.4359L137.406 85.4717V93.4001Z" fill="white"/>
<path d="M146.87 87.9302L140.004 91.9062V83.966L146.87 80.0018V87.9302Z" fill="white"/>
<path opacity="0.2" d="M417.367 4.47003C416.092 5.23521 414.955 6.20947 414.004 7.35203C413.851 0.741086 409.113 -1.90564 403.27 1.47041C401.297 2.65521 399.549 4.18059 398.108 5.97573C395.498 1.43512 390.114 0.376427 383.871 3.97598C375.088 9.04594 367.975 21.3856 367.975 31.5255C367.981 32.3124 368.036 33.0981 368.139 33.8781C366.594 33.5757 364.993 33.8971 363.684 34.7721C361.469 36.2175 359.627 38.1647 358.305 40.4558C356.983 42.7469 356.22 45.3173 356.077 47.9587C356.077 52.8052 359.486 54.7697 363.684 52.3464L417.367 21.3385C419.495 19.9503 421.266 18.0797 422.537 15.8786C423.807 13.6774 424.541 11.2076 424.68 8.66951C424.68 4.02303 421.399 2.14091 417.367 4.47003Z" fill="white"/>
<path opacity="0.5" d="M426.925 12.8572C425.65 13.6161 424.516 14.5914 423.574 15.7392C423.422 9.12828 418.672 6.48155 412.828 9.8576C410.858 11.0608 409.115 12.6018 407.679 14.41C405.08 9.8576 399.696 8.81067 393.453 12.4102C384.67 17.4802 377.557 29.8198 377.557 39.9597C377.559 40.7464 377.61 41.5321 377.71 42.3124C376.947 42.1597 376.161 42.1601 375.398 42.3136C374.635 42.467 373.91 42.7705 373.266 43.2064C371.049 44.6472 369.203 46.5915 367.879 48.8809C366.555 51.1703 365.79 53.7401 365.647 56.3812C365.647 61.2277 369.045 63.1921 373.254 60.7689L426.925 29.7963C429.055 28.4101 430.828 26.5401 432.099 24.3385C433.37 22.1369 434.103 19.666 434.238 17.1273C434.238 12.4573 430.97 10.5752 426.925 12.8572Z" fill="white"/>
<path d="M436.496 21.3385C435.219 22.1002 434.081 23.0749 433.133 24.2205C432.98 17.6096 428.242 14.9628 422.399 18.3389C420.426 19.5237 418.678 21.0491 417.237 22.8442C414.639 18.2918 409.242 17.2449 402.999 20.8445C394.229 25.9144 387.104 38.2541 387.104 48.394C387.109 49.1809 387.164 49.9666 387.268 50.7466C385.722 50.4554 384.123 50.7804 382.812 51.6524C380.599 53.0959 378.757 55.0411 377.435 57.3301C376.113 59.6192 375.35 62.1876 375.206 64.8272C375.206 69.6854 378.615 71.6499 382.812 69.2267L436.496 38.2188C438.623 36.8298 440.394 34.9591 441.664 32.7581C442.935 30.5571 443.669 28.0877 443.808 25.5498C443.808 20.8915 440.528 18.9976 436.496 21.3385Z" fill="white"/>
<path d="M124.767 258.191C124.473 258.193 124.185 258.115 123.932 257.968C123.682 257.821 123.475 257.611 123.33 257.359C123.186 257.108 123.11 256.823 123.109 256.533V235.253C123.11 234.963 123.186 234.678 123.33 234.426C123.475 234.175 123.682 233.965 123.932 233.818L142.355 223.172C142.609 223.029 142.896 222.954 143.187 222.955C143.478 222.957 143.764 223.034 144.016 223.181C144.268 223.327 144.478 223.537 144.623 223.789C144.769 224.041 144.847 224.328 144.848 224.619V245.887C144.848 246.18 144.771 246.468 144.624 246.722C144.478 246.976 144.267 247.187 144.013 247.334L125.601 257.921C125.353 258.085 125.064 258.178 124.767 258.191ZM126.424 236.218V253.651L141.521 244.934V227.489L126.424 236.218Z" fill="white"/>
<path d="M112.116 362.049L85.5566 346.698L112.116 331.359L138.675 346.698L112.116 362.049Z" fill="#7DC3EA"/>
<path d="M112.116 352.544C111.761 352.541 111.414 352.448 111.105 352.274L84.5454 336.982C84.2321 336.806 83.9714 336.55 83.7899 336.239C83.6084 335.929 83.5127 335.576 83.5127 335.217C83.5127 334.858 83.6084 334.505 83.7899 334.195C83.9714 333.885 84.2321 333.628 84.5454 333.453L111.105 318.16C111.414 317.987 111.762 317.896 112.116 317.896C112.47 317.896 112.818 317.987 113.127 318.16L139.686 333.453C140 333.628 140.26 333.885 140.442 334.195C140.623 334.505 140.719 334.858 140.719 335.217C140.719 335.576 140.623 335.929 140.442 336.239C140.26 336.55 140 336.806 139.686 336.982L113.127 352.274C112.819 352.451 112.471 352.544 112.116 352.544ZM89.6009 335.17L112.116 348.18L134.642 335.17L112.116 322.23L89.6009 335.17Z" fill="white"/>
<path d="M138.676 323.195L112.116 338.534V307.856L138.676 292.505V323.195Z" fill="url(#paint0_radial)"/>
<path d="M112.116 307.856L85.5566 292.505L112.116 277.165L138.675 292.505L112.116 307.856Z" fill="url(#paint1_linear)"/>
<path d="M112.116 338.534L85.5566 323.195V292.505L112.116 307.856V338.534Z" fill="url(#paint2_radial)"/>
<path d="M102.557 321.96L95.127 317.666V309.091L102.557 313.373V321.96Z" fill="white"/>
<path d="M409.501 196.775L382.941 181.436L409.501 166.085L436.06 181.436L409.501 196.775Z" fill="#7DC3EA"/>
<path d="M409.501 187.271C409.149 187.275 408.803 187.181 408.502 187L381.942 171.708C381.626 171.535 381.362 171.28 381.178 170.969C380.994 170.659 380.897 170.304 380.897 169.944C380.897 169.583 380.994 169.228 381.178 168.918C381.362 168.608 381.626 168.352 381.942 168.179L408.502 152.887C408.806 152.708 409.153 152.614 409.507 152.614C409.86 152.614 410.207 152.708 410.512 152.887L437.071 168.132C437.388 168.305 437.652 168.561 437.836 168.871C438.019 169.181 438.117 169.536 438.117 169.896C438.117 170.257 438.019 170.612 437.836 170.922C437.652 171.232 437.388 171.488 437.071 171.661L410.512 186.953C410.211 187.152 409.861 187.262 409.501 187.271ZM386.986 169.92L409.501 182.86L432.028 169.92L409.501 156.91L386.986 169.92Z" fill="white"/>
<path d="M436.06 157.922L409.501 173.261V142.582L436.06 127.243V157.922Z" fill="url(#paint3_radial)"/>
<path d="M409.501 142.582L382.941 127.243L409.501 111.904L436.06 127.243L409.501 142.582Z" fill="url(#paint4_linear)"/>
<path d="M409.501 173.261L382.941 157.922V127.243L409.501 142.582V173.261Z" fill="url(#paint5_radial)"/>
<path d="M399.942 156.686L392.512 152.405V143.817L399.942 148.111V156.686Z" fill="white"/>
<path d="M402.082 127.325L409.454 122.949L416.931 127.149L409.56 131.537L402.082 127.325Z" fill="white"/>
<path d="M409.501 362.049L382.941 346.698L409.501 331.359L436.06 346.698L409.501 362.049Z" fill="#7DC3EA"/>
<path d="M409.501 352.544C409.15 352.542 408.806 352.449 408.502 352.274L381.942 336.982C381.629 336.806 381.368 336.55 381.187 336.239C381.005 335.929 380.91 335.576 380.91 335.217C380.91 334.858 381.005 334.505 381.187 334.195C381.368 333.885 381.629 333.628 381.942 333.453L408.502 318.16C408.808 317.987 409.155 317.896 409.507 317.896C409.859 317.896 410.205 317.987 410.512 318.16L437.072 333.453C437.385 333.628 437.646 333.885 437.827 334.195C438.009 334.505 438.104 334.858 438.104 335.217C438.104 335.576 438.009 335.929 437.827 336.239C437.646 336.55 437.385 336.806 437.072 336.982L410.512 352.274C410.204 352.451 409.856 352.544 409.501 352.544ZM386.986 335.17L409.501 348.18L432.028 335.17L409.501 322.23L386.986 335.17Z" fill="white"/>
<path d="M436.06 323.195L409.501 338.534V307.856L436.06 292.505V323.195Z" fill="url(#paint6_radial)"/>
<path d="M409.501 307.856L382.941 292.505L409.501 277.165L436.06 292.505L409.501 307.856Z" fill="url(#paint7_linear)"/>
<path d="M409.501 338.534L382.941 323.195V292.505L409.501 307.856V338.534Z" fill="url(#paint8_radial)"/>
<path d="M399.942 321.96L392.512 317.666V309.091L399.942 313.373V321.96Z" fill="white"/>
<path d="M112.116 196.775L85.5566 181.436L112.116 166.085L138.675 181.436L112.116 196.775Z" fill="#7DC3EA"/>
<path d="M112.116 187.271C111.761 187.273 111.412 187.18 111.105 187L84.5457 171.708C84.2293 171.535 83.9653 171.28 83.7814 170.969C83.5975 170.659 83.5005 170.304 83.5005 169.944C83.5005 169.583 83.5975 169.228 83.7814 168.918C83.9653 168.608 84.2293 168.352 84.5457 168.179L111.105 152.887C111.412 152.708 111.761 152.614 112.116 152.614C112.471 152.614 112.82 152.708 113.127 152.887L139.687 168.179C140.003 168.352 140.267 168.608 140.451 168.918C140.635 169.228 140.732 169.583 140.732 169.944C140.732 170.304 140.635 170.659 140.451 170.969C140.267 171.28 140.003 171.535 139.687 171.708L113.127 187C112.822 187.183 112.472 187.276 112.116 187.271ZM89.6012 169.92L112.116 182.86L134.643 169.92L112.116 156.91L89.6012 169.92Z" fill="white"/>
<path d="M138.676 157.922L112.116 173.261V142.582L138.676 127.243V157.922Z" fill="url(#paint9_radial)"/>
<path d="M112.116 142.582L85.5566 127.243L112.116 111.904L138.675 127.243L112.116 142.582Z" fill="url(#paint10_linear)"/>
<path d="M112.116 173.261L85.5566 157.922V127.243L112.116 142.582V173.261Z" fill="url(#paint11_radial)"/>
<path d="M102.557 156.686L95.127 152.405V143.817L102.557 148.111V156.686Z" fill="white"/>
<path d="M394.849 148.95L317.601 193.554L319.616 197.049L396.865 152.445L394.849 148.95Z" fill="white"/>
<path d="M254.542 305.15L186.433 265.767C183.929 264.32 184.246 261.803 187.127 260.132L259.327 218.326C262.208 216.655 266.57 216.479 269.062 217.926L337.136 257.297C339.628 258.744 339.311 261.262 336.43 262.932L264.242 304.739C261.396 306.409 257.046 306.585 254.542 305.15Z" fill="#7DC3EA"/>
<path d="M258.786 292.211C256.963 292.273 255.154 291.868 253.531 291.034L185.469 251.651C184.686 251.256 184.023 250.658 183.549 249.919C183.076 249.181 182.809 248.328 182.776 247.452C182.856 246.404 183.211 245.396 183.806 244.531C184.4 243.665 185.214 242.972 186.162 242.523L258.363 200.704C261.89 198.681 267.016 198.505 270.12 200.293L338.241 239.641C339.022 240.035 339.684 240.631 340.158 241.367C340.631 242.104 340.899 242.954 340.933 243.828C340.856 244.88 340.5 245.891 339.903 246.759C339.306 247.627 338.489 248.321 337.536 248.769L265.347 290.576C263.336 291.675 261.077 292.238 258.786 292.211ZM255.553 287.505C257.422 288.588 261.032 288.399 263.277 287.105L335.466 245.287C336.477 244.711 336.842 244.111 336.842 243.852C336.842 243.593 336.63 243.429 336.172 243.158L268.051 203.822C266.181 202.739 262.572 202.928 260.338 204.222L188.138 246.005C187.127 246.593 186.762 247.181 186.762 247.44C186.762 247.699 186.974 247.863 187.444 248.134L255.553 287.505Z" fill="white"/>
<path d="M259.456 98.0349C259.456 98.0349 222.069 101.564 199.495 103.328L259.233 273.554L338.312 227.96L338.453 227.877C339.026 227.416 339.474 226.817 339.756 226.137C340.037 225.456 340.143 224.716 340.063 223.984V57.5575C340.023 55.7076 339.557 53.892 338.7 52.2523L259.456 98.0349Z" fill="url(#paint12_radial)"/>
<path d="M335.196 48.2058L265.711 8.05783C265.253 7.73685 264.718 7.54277 264.16 7.49526C263.603 7.44775 263.043 7.54849 262.537 7.78727L183.2 53.5816L186.938 67.4269L206.832 124.102L210.582 126.267L338.735 52.2523C337.956 50.5994 336.73 49.1976 335.196 48.2058Z" fill="url(#paint13_linear)"/>
<path d="M255.918 273.401L186.421 233.265C183.717 231.701 181.53 227.513 181.53 223.854V57.5575C181.53 53.9462 183.717 52.2876 186.421 53.8521L255.918 94.0236C258.622 95.5763 260.809 99.7758 260.809 103.434V269.708C260.809 273.307 258.622 274.966 255.918 273.401Z" fill="#5793CE"/>
<path d="M257.411 93.1296L187.914 52.9816C187.351 52.5476 186.647 52.3365 185.938 52.3885C185.229 52.4406 184.564 52.7523 184.07 53.264C184.894 53.1736 185.724 53.3687 186.421 53.8168L255.918 94.0236C258.622 95.5763 260.809 99.7758 260.809 103.434V269.708C260.886 270.932 260.518 272.144 259.774 273.119C261.279 272.884 262.302 271.331 262.302 268.861V102.481C262.302 98.8701 260.115 94.6823 257.411 93.1296Z" fill="white"/>
<path d="M251.544 263.414L190.795 228.313C188.443 226.948 186.515 223.29 186.515 220.137V65.5918C186.515 62.4393 188.432 60.9924 190.795 62.3569L251.544 97.4467C253.895 98.8112 255.823 102.47 255.823 105.681V260.156C255.823 263.308 253.907 264.755 251.544 263.414Z" fill="url(#paint14_linear)"/>
<path d="M251.544 263.414L190.795 228.313C188.443 226.948 186.515 223.29 186.515 220.137V65.5918C186.515 62.4393 188.432 60.9924 190.795 62.3569L251.544 97.4467C253.895 98.8112 255.823 102.47 255.823 105.681V260.156C255.823 263.308 253.907 264.755 251.544 263.414Z" fill="url(#paint15_linear)"/>
<path d="M251.544 263.414L190.795 228.313C188.443 226.948 186.515 223.29 186.515 220.137V65.5918C186.515 62.4393 188.432 60.9924 190.795 62.3569L251.544 97.4467C253.895 98.8112 255.823 102.47 255.823 105.681V260.156C255.823 263.308 253.907 264.755 251.544 263.414Z" fill="#173D7A"/>
<path d="M253.531 262.238L192.782 227.148C190.43 225.784 188.502 222.125 188.502 218.914V64.4273C188.466 63.525 188.678 62.6301 189.113 61.8394C187.585 61.8394 186.515 63.2392 186.515 65.5918V220.114C186.515 223.266 188.432 226.925 190.795 228.289L251.544 263.414C253.108 264.308 254.46 263.979 255.212 262.756C254.615 262.736 254.035 262.558 253.531 262.238Z" fill="#396CAA"/>
<path d="M251.544 192.447L228.97 179.401L192.958 200.199L255.823 236.523V200.622C255.823 197.47 253.907 193.811 251.544 192.447Z" fill="#173D7A"/>
<path d="M251.544 160.78L228.97 147.735L192.958 168.532L255.823 204.857V168.955C255.823 165.779 253.907 162.145 251.544 160.78Z" fill="#173D7A"/>
<path d="M251.544 129.113L228.97 116.068L192.958 136.877L255.823 173.19V137.289C255.823 134.136 253.907 130.49 251.544 129.113Z" fill="#173D7A"/>
<path d="M251.544 97.4467L228.97 84.4013L192.958 105.21L255.823 141.524V105.622C255.823 102.47 253.907 98.8112 251.544 97.4467Z" fill="#173D7A"/>
<path d="M251.544 97.4467L201.564 68.5679L192.958 73.5438L255.823 109.857V105.622C255.823 102.47 253.907 98.8112 251.544 97.4467Z" fill="#173D7A"/>
<path d="M255.823 109.857L192.958 73.5438V93.5531L255.823 129.878V109.857Z" fill="#5793CE"/>
<path d="M255.823 141.524L192.958 105.21V125.22L255.823 161.533V141.524Z" fill="#5793CE"/>
<path d="M255.823 173.19L192.958 136.865V156.886L255.823 193.199V173.19Z" fill="#5793CE"/>
<path d="M255.823 204.857L192.958 168.532V188.553L255.823 224.866V204.857Z" fill="#5793CE"/>
<path d="M255.823 236.512L192.958 200.199V220.208L255.823 256.533V236.512Z" fill="#5793CE"/>
<path d="M250.286 122.738L202.928 95.3881C202.192 94.8606 201.589 94.1675 201.168 93.3647C200.748 92.5618 200.521 91.6715 200.506 90.7652V85.4011C200.506 83.6131 201.588 82.8015 202.928 83.5661L250.286 110.927C251.021 111.456 251.622 112.149 252.041 112.952C252.46 113.755 252.684 114.645 252.696 115.55V120.914C252.696 122.691 251.615 123.514 250.286 122.738Z" fill="#173D7A"/>
<path opacity="0.3" d="M205.315 94.3647C204.581 93.8314 203.981 93.1356 203.561 92.3315C203.14 91.5275 202.912 90.6371 202.893 89.73V84.3777C202.897 84.1164 202.929 83.8562 202.987 83.6014C201.647 82.8367 200.565 83.6014 200.565 85.4364V90.8005C200.579 91.7068 200.806 92.5971 201.227 93.4C201.647 94.2028 202.25 94.8958 202.987 95.4234L250.345 122.773C250.553 122.94 250.803 123.047 251.068 123.081C251.332 123.115 251.602 123.075 251.845 122.965C252.088 122.856 252.297 122.681 252.447 122.46C252.597 122.239 252.683 121.981 252.696 121.714L205.315 94.3647Z" fill="#06033E"/>
<path d="M235.425 108.057L206.926 91.5886C206.666 91.4036 206.453 91.1605 206.304 90.8786C206.155 90.5968 206.074 90.284 206.067 89.9653C206.067 89.3301 206.455 89.0477 206.926 89.3183L235.425 105.787C235.685 105.974 235.897 106.219 236.044 106.503C236.191 106.787 236.269 107.102 236.271 107.422C236.271 108.034 235.895 108.328 235.425 108.057Z" fill="white"/>
<path d="M250.286 154.216L202.928 126.855C202.192 126.327 201.589 125.634 201.168 124.831C200.748 124.028 200.521 123.138 200.506 122.232V116.868C200.506 115.08 201.588 114.268 202.928 115.033L250.286 142.394C251.016 142.927 251.613 143.622 252.031 144.424C252.449 145.225 252.677 146.113 252.696 147.017V152.381C252.696 154.169 251.615 154.981 250.286 154.216Z" fill="#173D7A"/>
<path opacity="0.3" d="M205.315 125.784C204.581 125.251 203.981 124.555 203.561 123.751C203.14 122.947 202.912 122.057 202.893 121.15V115.797C202.898 115.536 202.93 115.276 202.987 115.021C201.647 114.256 200.565 115.021 200.565 116.856V122.255C200.579 123.162 200.806 124.052 201.227 124.855C201.647 125.658 202.25 126.351 202.987 126.878L250.345 154.24C250.553 154.408 250.805 154.514 251.07 154.548C251.336 154.581 251.606 154.54 251.85 154.429C252.094 154.318 252.302 154.142 252.451 153.919C252.601 153.697 252.686 153.437 252.696 153.169L205.315 125.784Z" fill="#06033E"/>
<path d="M235.425 139.524L206.926 123.055C206.666 122.87 206.453 122.627 206.304 122.345C206.155 122.063 206.074 121.751 206.067 121.432C206.067 120.808 206.455 120.514 206.926 120.785L235.425 137.254C235.683 137.439 235.894 137.683 236.041 137.965C236.188 138.246 236.267 138.559 236.271 138.877C236.271 139.5 235.895 139.794 235.425 139.524Z" fill="white"/>
<path d="M250.286 185.977L202.928 158.616C202.191 158.089 201.588 157.396 201.167 156.593C200.746 155.79 200.52 154.899 200.506 153.993V148.629C200.506 146.852 201.588 146.029 202.928 146.805L250.286 174.155C251.016 174.688 251.613 175.383 252.031 176.184C252.449 176.986 252.677 177.874 252.696 178.778V184.142C252.696 185.93 251.615 186.741 250.286 185.977Z" fill="#173D7A"/>
<path opacity="0.3" d="M205.315 157.545C204.583 157.013 203.983 156.319 203.563 155.517C203.143 154.715 202.914 153.827 202.893 152.922V147.558C202.897 147.301 202.929 147.044 202.987 146.793C201.647 146.017 200.565 146.793 200.565 148.617V154.016C200.579 154.923 200.805 155.813 201.225 156.616C201.646 157.419 202.25 158.112 202.987 158.639L250.345 186C250.553 186.168 250.805 186.275 251.07 186.309C251.336 186.342 251.606 186.301 251.85 186.19C252.094 186.079 252.302 185.902 252.451 185.68C252.601 185.457 252.686 185.198 252.696 184.93L205.315 157.545Z" fill="#06033E"/>
<path d="M235.425 171.285L206.926 154.816C206.667 154.628 206.454 154.383 206.305 154.099C206.157 153.815 206.075 153.501 206.067 153.181C206.067 152.557 206.455 152.263 206.926 152.534L235.425 169.002C235.683 169.188 235.894 169.432 236.041 169.714C236.188 169.995 236.267 170.308 236.271 170.626C236.271 171.261 235.895 171.555 235.425 171.285Z" fill="#D4ECFF"/>
<path d="M250.286 218.032L202.928 190.67C202.19 190.145 201.585 189.452 201.164 188.649C200.744 187.846 200.518 186.954 200.506 186.047V180.683C200.506 178.907 201.588 178.084 202.928 178.86L250.286 206.21C251.016 206.743 251.613 207.438 252.031 208.239C252.449 209.041 252.677 209.928 252.696 210.833V216.197C252.696 217.985 251.615 218.796 250.286 218.032Z" fill="#173D7A"/>
<path opacity="0.3" d="M205.315 189.647C204.583 189.115 203.983 188.421 203.563 187.619C203.143 186.817 202.914 185.929 202.893 185.024V179.66C202.897 179.403 202.929 179.146 202.987 178.895C201.647 178.119 200.565 178.895 200.565 180.719V186.083C200.577 186.99 200.802 187.881 201.223 188.684C201.644 189.487 202.248 190.18 202.987 190.706L250.345 218.067C250.553 218.234 250.803 218.341 251.068 218.375C251.332 218.409 251.602 218.369 251.845 218.259C252.088 218.15 252.297 217.975 252.447 217.754C252.597 217.533 252.683 217.275 252.696 217.008L205.315 189.647Z" fill="#06033E"/>
<path d="M235.425 203.339L206.926 186.871C206.665 186.684 206.452 186.439 206.303 186.155C206.154 185.871 206.073 185.556 206.067 185.236C206.067 184.612 206.455 184.318 206.926 184.589L235.425 201.057C235.683 201.243 235.894 201.486 236.041 201.768C236.188 202.05 236.267 202.363 236.271 202.681C236.271 203.328 235.895 203.61 235.425 203.339Z" fill="#FF2C9C"/>
<path d="M250.286 249.451L202.928 222.09C202.19 221.564 201.585 220.872 201.164 220.069C200.744 219.265 200.518 218.374 200.506 217.467V212.103C200.506 210.327 201.588 209.503 202.928 210.28L250.286 237.629C251.018 238.164 251.616 238.86 252.034 239.664C252.452 240.468 252.679 241.358 252.696 242.264V247.616C252.696 249.404 251.615 250.216 250.286 249.451Z" fill="#173D7A"/>
<path opacity="0.3" d="M205.315 221.067C204.583 220.534 203.983 219.841 203.563 219.039C203.143 218.237 202.914 217.349 202.893 216.444V211.08C202.898 210.822 202.93 210.566 202.987 210.315C201.647 209.539 200.565 210.315 200.565 212.138V217.502C200.577 218.409 200.802 219.301 201.223 220.104C201.644 220.907 202.248 221.6 202.987 222.125L250.345 249.487C250.553 249.654 250.803 249.761 251.068 249.795C251.332 249.829 251.602 249.789 251.845 249.679C252.088 249.569 252.297 249.395 252.447 249.174C252.597 248.953 252.683 248.695 252.696 248.428L205.315 221.067Z" fill="#06033E"/>
<path d="M235.425 234.759L206.926 218.29C206.665 218.104 206.451 217.859 206.302 217.575C206.153 217.291 206.072 216.976 206.067 216.655C206.067 216.032 206.455 215.738 206.926 216.008L235.425 232.477C235.683 232.663 235.894 232.906 236.041 233.188C236.188 233.47 236.267 233.782 236.271 234.1C236.271 234.747 235.895 235.03 235.425 234.759Z" fill="#D4ECFF"/>
<path opacity="0.5" d="M192.958 73.5438L197.908 76.4023V96.4115L192.958 93.5531V73.5438Z" fill="#173D7A"/>
<path opacity="0.5" d="M192.958 105.21L197.908 108.069V128.078L192.958 125.22V105.21Z" fill="#173D7A"/>
<path opacity="0.5" d="M192.958 136.865L197.908 139.724V159.745L192.958 156.886V136.865Z" fill="#173D7A"/>
<path opacity="0.5" d="M192.958 168.532L197.908 171.39V191.411L192.958 188.553V168.532Z" fill="#173D7A"/>
<path opacity="0.5" d="M192.958 200.199L197.908 203.057V223.066L192.958 220.208V200.199Z" fill="#173D7A"/>
<path d="M242.499 111.343C242.894 111.116 242.897 110.377 242.504 109.693C242.111 109.009 241.472 108.639 241.076 108.866C240.681 109.094 240.679 109.833 241.072 110.516C241.465 111.2 242.104 111.57 242.499 111.343Z" fill="#D4ECFF"/>
<path d="M245.289 112.48C245.289 113.127 244.831 113.386 244.278 113.057C243.987 112.868 243.745 112.612 243.571 112.312C243.397 112.011 243.297 111.674 243.279 111.327C243.279 110.68 243.726 110.422 244.278 110.751C244.57 110.94 244.814 111.195 244.989 111.495C245.165 111.795 245.268 112.133 245.289 112.48Z" fill="#FF2C9C"/>
<path d="M249.533 114.939C249.533 115.574 249.087 115.833 248.534 115.515C248.242 115.324 247.999 115.067 247.826 114.765C247.652 114.462 247.552 114.123 247.535 113.774C247.535 113.139 247.981 112.88 248.534 113.198C248.825 113.389 249.068 113.646 249.241 113.949C249.415 114.251 249.515 114.59 249.533 114.939Z" fill="#D4ECFF"/>
<path d="M241.033 141.676C241.033 142.312 240.586 142.57 240.034 142.253C239.742 142.064 239.5 141.809 239.326 141.508C239.153 141.208 239.053 140.87 239.034 140.524C239.034 139.877 239.481 139.618 240.034 139.936C240.324 140.128 240.565 140.386 240.738 140.688C240.912 140.99 241.013 141.329 241.033 141.676Z" fill="#FF2C9C"/>
<path d="M245.289 144.135C245.289 144.77 244.831 145.029 244.278 144.711C243.986 144.521 243.743 144.263 243.57 143.961C243.396 143.658 243.296 143.319 243.279 142.97C243.279 142.335 243.726 142.076 244.278 142.394C244.572 142.584 244.816 142.841 244.992 143.143C245.168 143.446 245.27 143.786 245.289 144.135Z" fill="#D4ECFF"/>
<path d="M249.533 146.582C249.533 147.229 249.087 147.488 248.534 147.17C248.244 146.977 248.003 146.719 247.829 146.417C247.656 146.115 247.555 145.777 247.535 145.429C247.535 144.794 247.981 144.535 248.534 144.853C248.825 145.041 249.067 145.297 249.241 145.597C249.415 145.898 249.515 146.235 249.533 146.582Z" fill="white"/>
<path d="M241.033 173.567C241.033 174.202 240.586 174.461 240.034 174.143C239.742 173.952 239.499 173.695 239.325 173.393C239.151 173.09 239.052 172.751 239.034 172.402C239.034 171.767 239.481 171.508 240.034 171.826C240.326 172.016 240.568 172.274 240.742 172.576C240.916 172.879 241.015 173.218 241.033 173.567Z" fill="white"/>
<path d="M245.289 176.013C245.289 176.66 244.831 176.919 244.278 176.602C243.987 176.41 243.744 176.153 243.571 175.85C243.397 175.548 243.297 175.209 243.279 174.861C243.279 174.225 243.726 173.967 244.278 174.284C244.57 174.473 244.814 174.728 244.989 175.028C245.165 175.329 245.268 175.666 245.289 176.013Z" fill="#FF2C9C"/>
<path d="M249.533 178.472C249.533 179.119 249.087 179.378 248.534 179.048C248.243 178.859 248.001 178.604 247.827 178.304C247.653 178.003 247.553 177.666 247.535 177.319C247.535 176.672 247.981 176.413 248.534 176.731C248.824 176.924 249.065 177.181 249.239 177.484C249.412 177.786 249.513 178.124 249.533 178.472Z" fill="white"/>
<path d="M241.033 204.986C241.033 205.621 240.586 205.88 240.034 205.563C239.742 205.374 239.5 205.119 239.326 204.818C239.153 204.518 239.053 204.18 239.034 203.833C239.034 203.186 239.481 202.928 240.034 203.245C240.324 203.438 240.565 203.696 240.738 203.998C240.912 204.3 241.013 204.638 241.033 204.986Z" fill="white"/>
<path d="M245.289 207.445C245.289 208.08 244.831 208.339 244.278 208.021C243.986 207.83 243.743 207.573 243.57 207.271C243.396 206.968 243.296 206.629 243.279 206.28C243.279 205.645 243.726 205.386 244.278 205.704C244.572 205.894 244.816 206.151 244.992 206.453C245.168 206.756 245.27 207.095 245.289 207.445Z" fill="#D4ECFF"/>
<path d="M249.533 209.892C249.533 210.538 249.087 210.797 248.534 210.48C248.244 210.287 248.003 210.029 247.829 209.727C247.656 209.425 247.555 209.087 247.535 208.739C247.535 208.103 247.981 207.845 248.534 208.162C248.825 208.351 249.067 208.606 249.241 208.907C249.415 209.207 249.515 209.545 249.533 209.892Z" fill="#D4ECFF"/>
<path d="M241.033 236.841C241.033 237.476 240.586 237.735 240.034 237.417C239.742 237.227 239.499 236.97 239.325 236.667C239.151 236.364 239.052 236.025 239.034 235.677C239.034 235.041 239.481 234.783 240.034 235.1C240.326 235.291 240.568 235.548 240.742 235.851C240.916 236.153 241.015 236.493 241.033 236.841Z" fill="white"/>
<path d="M245.289 239.3C245.289 239.935 244.831 240.194 244.278 239.876C243.987 239.685 243.744 239.427 243.571 239.125C243.397 238.822 243.297 238.483 243.279 238.135C243.279 237.5 243.726 237.241 244.278 237.559C244.572 237.749 244.816 238.006 244.992 238.308C245.168 238.611 245.27 238.95 245.289 239.3Z" fill="#FF2C9C"/>
<path d="M249.533 241.746C249.533 242.393 249.087 242.652 248.534 242.323C248.243 242.134 248.001 241.879 247.827 241.578C247.653 241.278 247.553 240.94 247.535 240.594C247.535 239.947 247.981 239.688 248.534 240.017C248.825 240.206 249.067 240.461 249.241 240.762C249.415 241.062 249.515 241.4 249.533 241.746Z" fill="#D4ECFF"/>
<path d="M271.296 250.91V109.233L271.59 109.069L330.763 74.873V216.561L330.469 216.726L271.296 250.91ZM272.472 109.916V248.887L329.599 215.879V76.9081L272.472 109.916Z" fill="#173D7A"/>
<path d="M315.385 138.63L288.849 153.922C287.062 154.945 285.616 153.851 285.616 151.475V136.795C285.636 135.584 285.938 134.395 286.5 133.323C287.061 132.25 287.866 131.324 288.849 130.619L315.385 115.327C317.161 114.303 318.607 115.397 318.607 117.774V132.489C318.581 133.693 318.277 134.873 317.718 135.939C317.159 137.004 316.361 137.926 315.385 138.63Z" fill="#173D7A"/>
<path d="M315.973 115.009C316.142 115.481 316.225 115.979 316.22 116.48V131.207C316.202 132.416 315.9 133.604 315.339 134.675C314.777 135.746 313.971 136.67 312.987 137.371L286.451 152.663C286.246 152.783 286.029 152.882 285.804 152.957C285.889 153.257 286.047 153.531 286.264 153.755C286.48 153.979 286.749 154.147 287.045 154.242C287.342 154.337 287.657 154.358 287.964 154.302C288.27 154.247 288.558 154.116 288.802 153.922L315.338 138.63C316.318 137.922 317.12 136.995 317.679 135.923C318.238 134.851 318.54 133.663 318.56 132.454V117.738C318.607 115.656 317.501 114.55 315.973 115.009Z" fill="#5793CE"/>
<path d="M310.529 129.76C311.023 129.478 311.423 129.76 311.423 130.278V133.63C311.406 133.938 311.316 134.237 311.161 134.503C311.005 134.769 310.789 134.994 310.529 135.16C310.047 135.454 309.647 135.218 309.647 134.654V131.301C309.665 130.994 309.754 130.694 309.907 130.427C310.06 130.159 310.273 129.931 310.529 129.76Z" fill="white"/>
<path d="M306.732 132.384C307.214 132.089 307.614 132.325 307.614 132.889V135.83C307.596 136.136 307.507 136.434 307.354 136.699C307.201 136.965 306.988 137.191 306.732 137.359C306.238 137.642 305.838 137.359 305.838 136.854V133.913C305.855 133.605 305.945 133.306 306.101 133.04C306.256 132.774 306.472 132.549 306.732 132.384Z" fill="#D4ECFF"/>
<path d="M302.923 131.301C303.405 131.019 303.805 131.301 303.805 131.819V138.018C303.789 138.326 303.701 138.626 303.548 138.894C303.394 139.162 303.18 139.39 302.923 139.559C302.429 139.841 302.029 139.559 302.029 139.053V132.842C302.046 132.533 302.136 132.232 302.291 131.965C302.447 131.697 302.663 131.47 302.923 131.301Z" fill="#FF2C9C"/>
<path d="M299.113 129.925C299.607 129.643 300.007 129.866 300.007 130.443V140.218C299.991 140.527 299.901 140.828 299.746 141.096C299.591 141.364 299.374 141.591 299.113 141.759C298.619 142.041 298.22 141.759 298.22 141.253V131.466C298.237 131.157 298.327 130.856 298.482 130.588C298.637 130.321 298.853 130.093 299.113 129.925Z" fill="#D4ECFF"/>
<path d="M295.304 133.148C295.798 132.866 296.198 133.148 296.198 133.666V142.418C296.182 142.727 296.092 143.028 295.937 143.296C295.781 143.564 295.565 143.791 295.304 143.959C294.81 144.241 294.422 144.017 294.422 143.453V134.689C294.437 134.381 294.525 134.08 294.678 133.813C294.831 133.545 295.046 133.317 295.304 133.148Z" fill="#D4ECFF"/>
<path d="M291.495 139.347C291.988 139.065 292.388 139.347 292.388 139.865V144.57C292.371 144.879 292.281 145.18 292.126 145.448C291.971 145.716 291.754 145.943 291.495 146.111C291.013 146.394 290.613 146.17 290.613 145.605V140.9C290.629 140.59 290.717 140.289 290.87 140.019C291.023 139.749 291.237 139.519 291.495 139.347Z" fill="white"/>
<path d="M309.659 128.066C309.659 128.619 310.047 128.855 310.529 128.572C310.785 128.406 310.998 128.183 311.151 127.919C311.305 127.655 311.394 127.359 311.411 127.055C311.411 126.502 311.011 126.278 310.529 126.549C310.276 126.717 310.066 126.941 309.915 127.205C309.764 127.468 309.676 127.763 309.659 128.066Z" fill="#FF2C9C"/>
<path d="M311.136 124.75C311.477 124.159 311.475 123.52 311.132 123.321C310.789 123.123 310.234 123.442 309.894 124.032C309.553 124.623 309.554 125.263 309.897 125.461C310.24 125.659 310.795 125.341 311.136 124.75Z" fill="white"/>
<path d="M411.535 48.8645H407.491V127.243H411.535V48.8645Z" fill="white"/>
<path d="M256.306 377.024L215.72 353.591C213.239 352.144 213.545 349.639 216.425 347.968L255.6 325.348C258.481 323.677 262.831 323.501 265.323 324.936L305.897 348.38C308.39 349.815 308.072 352.333 305.192 353.991L266.017 376.624C263.137 378.282 258.786 378.459 256.306 377.024Z" fill="#7DC3EA"/>
<path d="M260.538 367.484C258.662 367.527 256.806 367.081 255.153 366.19L214.568 342.757C213.742 342.339 213.044 341.707 212.546 340.927C212.047 340.147 211.767 339.248 211.734 338.323C211.812 337.225 212.18 336.167 212.8 335.258C213.419 334.349 214.269 333.62 215.262 333.147L254.448 310.467C258.069 308.373 263.242 308.197 266.464 310.067L307.049 333.511C307.877 333.928 308.576 334.559 309.075 335.339C309.574 336.12 309.853 337.02 309.883 337.946C309.804 339.042 309.436 340.098 308.816 341.005C308.197 341.912 307.348 342.639 306.356 343.11L267.169 365.754C265.145 366.895 262.861 367.49 260.538 367.484ZM257.458 362.226C259.245 363.261 262.702 363.072 264.865 361.826L304.04 339.193C305.027 338.617 305.215 338.111 305.215 338.017C305.071 337.836 304.891 337.688 304.686 337.581L264.159 314.114C262.372 313.079 258.916 313.267 256.752 314.514L217.578 337.146C216.59 337.711 216.402 338.228 216.343 338.323C216.487 338.503 216.667 338.651 216.872 338.758L257.458 362.226Z" fill="white"/>
<path d="M307.567 323.63V309.62H276.163L265.323 303.35C262.831 301.915 258.481 302.092 255.6 303.762L245.477 309.644H214.05V324.054C214.046 324.603 214.202 325.141 214.498 325.602C214.795 326.064 215.219 326.429 215.72 326.653L256.306 350.098C258.786 351.533 263.136 351.356 266.017 349.698L305.192 326.936C306.849 326.018 307.661 324.783 307.567 323.63Z" fill="#396CAA"/>
<path d="M260.808 302.362C258.986 302.389 257.198 302.861 255.6 303.739L245.477 309.62H214.05V324.03C214.046 324.579 214.202 325.117 214.498 325.579C214.795 326.041 215.219 326.406 215.72 326.63L256.306 350.074C257.694 350.79 259.249 351.123 260.808 351.039V302.362Z" fill="url(#paint16_radial)"/>
<path d="M217.613 309.561H214.086V323.971C214.081 324.52 214.237 325.058 214.533 325.52C214.83 325.982 215.254 326.347 215.755 326.571L217.648 327.665L217.613 309.561Z" fill="#D4ECFF"/>
<path d="M256.929 350.321C259.441 351.23 262.198 351.197 264.688 350.227V333.876H256.929V350.321Z" fill="#5793CE"/>
<path d="M256.306 335.664L215.72 312.22C213.239 310.785 213.545 308.267 216.425 306.609L255.6 283.976C258.481 282.318 262.831 282.141 265.323 283.576L305.897 307.009C308.39 308.456 308.072 310.961 305.192 312.62L266.017 335.252C263.137 336.923 258.786 337.099 256.306 335.664Z" fill="url(#paint17_linear)"/>
<path d="M305.192 309.867L266.017 332.5C263.136 334.158 258.786 334.347 256.306 332.9L215.72 309.467C215.226 309.202 214.803 308.823 214.485 308.362C213.627 309.738 214.015 311.232 215.72 312.22L256.306 335.664C258.786 337.099 263.136 336.923 266.017 335.252L305.192 312.62C307.426 311.338 308.107 309.526 307.132 308.115C306.642 308.852 305.975 309.455 305.192 309.867Z" fill="white"/>
<path d="M292.635 327.324C292.606 327.892 292.443 328.445 292.159 328.938C291.875 329.431 291.478 329.849 291.001 330.159C290.096 330.688 289.355 330.265 289.355 329.218C289.387 328.647 289.553 328.093 289.839 327.598C290.125 327.104 290.523 326.683 291.001 326.371C291.906 325.854 292.635 326.277 292.635 327.324Z" fill="#D4ECFF"/>
<path d="M297.914 324.277C297.883 324.846 297.717 325.4 297.431 325.892C297.145 326.385 296.746 326.803 296.268 327.112C295.363 327.642 294.634 327.218 294.634 326.171C294.664 325.602 294.827 325.047 295.111 324.553C295.395 324.058 295.792 323.637 296.268 323.324C297.162 322.807 297.914 323.23 297.914 324.277Z" fill="#D4ECFF"/>
<path d="M303.181 321.231C303.152 321.799 302.989 322.352 302.705 322.845C302.421 323.337 302.024 323.756 301.547 324.066C300.642 324.595 299.901 324.171 299.901 323.124C299.933 322.554 300.099 321.999 300.385 321.505C300.671 321.01 301.069 320.59 301.547 320.278C302.452 319.76 303.181 320.184 303.181 321.231Z" fill="#D4ECFF"/>
<path d="M258.704 321.125L239.716 310.161C238.541 309.491 238.693 308.315 240.034 307.538L258.375 296.951C259.066 296.567 259.838 296.35 260.628 296.317C261.418 296.284 262.204 296.437 262.925 296.763L281.877 307.726C283.053 308.397 282.889 309.573 281.548 310.35L263.207 320.936C262.523 321.318 261.76 321.533 260.978 321.566C260.196 321.599 259.417 321.448 258.704 321.125Z" fill="#5793CE"/>
<path d="M260.514 311.949L257.893 310.467C257.728 310.373 257.752 310.208 257.893 310.103L260.42 308.632C260.519 308.583 260.628 308.558 260.738 308.558C260.848 308.558 260.957 308.583 261.055 308.632L263.677 310.15C263.842 310.244 263.818 310.408 263.677 310.514L261.138 311.973C261.039 312.019 260.932 312.041 260.823 312.037C260.715 312.033 260.609 312.003 260.514 311.949Z" fill="#D4ECFF"/>
<path d="M239.716 310.161L239.987 309.973L258.328 299.386C259.019 299.002 259.791 298.785 260.581 298.752C261.371 298.719 262.157 298.872 262.878 299.198L281.807 310.138C282.877 309.373 282.983 308.326 281.807 307.703L262.819 296.728C262.099 296.402 261.312 296.249 260.522 296.282C259.732 296.314 258.96 296.532 258.269 296.916L239.928 307.503C238.694 308.315 238.552 309.491 239.716 310.161Z" fill="#396CAA"/>
<path d="M404.998 273.601L364.424 250.169C361.932 248.734 362.249 246.216 365.118 244.558L404.304 221.925C407.173 220.267 411.523 220.078 414.016 221.514L454.59 244.958C457.082 246.393 456.765 248.91 453.896 250.569L414.733 273.201C411.841 274.86 407.491 275.048 404.998 273.601Z" fill="#7DC3EA"/>
<path d="M409.242 264.061C407.363 264.103 405.505 263.662 403.846 262.779L363.272 239.335C362.446 238.917 361.748 238.285 361.25 237.505C360.751 236.725 360.471 235.825 360.438 234.9C360.515 233.803 360.882 232.747 361.502 231.839C362.122 230.932 362.972 230.206 363.966 229.736L403.152 207.104C406.773 204.998 411.935 204.833 415.168 206.692L455.742 230.136C456.567 230.554 457.266 231.186 457.764 231.966C458.262 232.746 458.542 233.646 458.575 234.571C458.499 235.667 458.132 236.724 457.512 237.632C456.892 238.539 456.042 239.265 455.048 239.735L415.909 262.367C413.872 263.502 411.574 264.086 409.242 264.061ZM406.15 258.78C407.937 259.815 411.406 259.627 413.557 258.38L452.744 235.747C453.72 235.182 453.919 234.665 453.919 234.571C453.786 234.378 453.603 234.223 453.39 234.124L412.816 210.691C411.029 209.656 407.561 209.844 405.41 211.091L366.223 233.724C365.235 234.288 365.047 234.806 365.047 234.9C365.181 235.093 365.364 235.248 365.576 235.347L406.15 258.78Z" fill="white"/>
<path d="M456.259 220.208V206.198H424.868L414.016 199.893C411.523 198.446 407.173 198.634 404.304 200.293L394.17 206.174H362.755V220.573C362.748 221.123 362.902 221.664 363.199 222.128C363.496 222.592 363.922 222.959 364.424 223.184L404.998 246.616C407.49 248.051 411.841 247.875 414.709 246.216L453.896 223.584C455.554 222.608 456.353 221.361 456.259 220.208Z" fill="#396CAA"/>
<path d="M409.513 198.952C407.691 198.972 405.902 199.441 404.304 200.316L394.17 206.198H362.755V220.596C362.748 221.147 362.902 221.688 363.199 222.152C363.496 222.616 363.922 222.983 364.424 223.207L404.998 246.64C406.389 247.362 407.948 247.695 409.513 247.604V198.952Z" fill="url(#paint18_radial)"/>
<path d="M366.305 206.151H362.778V220.549C362.771 221.1 362.926 221.64 363.223 222.105C363.519 222.569 363.945 222.936 364.448 223.16L366.329 224.243L366.305 206.151Z" fill="#D4ECFF"/>
<path d="M405.621 246.946C408.136 247.859 410.897 247.83 413.393 246.863V230.477H405.621V246.946Z" fill="#5793CE"/>
<path d="M404.998 232.242L364.424 208.798C361.932 207.362 362.249 204.845 365.118 203.186L404.304 180.554C407.173 178.895 411.523 178.719 414.016 180.154L454.59 203.598C457.082 205.033 456.765 207.551 453.896 209.209L414.733 231.842C411.841 233.5 407.491 233.677 404.998 232.242Z" fill="url(#paint19_linear)"/>
<path d="M453.896 206.445L414.733 229.077C411.864 230.748 407.514 230.924 405.021 229.489L364.447 206.045C363.954 205.775 363.528 205.397 363.201 204.939C362.343 206.315 362.731 207.809 364.447 208.798L405.021 232.242C407.514 233.677 411.864 233.5 414.733 231.842L453.919 209.209C456.153 207.915 456.835 206.116 455.859 204.692C455.36 205.43 454.685 206.032 453.896 206.445Z" fill="white"/>
<path d="M441.339 223.902C441.308 224.47 441.142 225.024 440.856 225.517C440.57 226.009 440.172 226.427 439.693 226.736C438.788 227.266 438.059 226.842 438.059 225.795C438.088 225.227 438.251 224.674 438.536 224.181C438.82 223.689 439.216 223.27 439.693 222.96C440.599 222.431 441.339 222.855 441.339 223.902Z" fill="#D4ECFF"/>
<path d="M446.606 220.855C446.576 221.424 446.413 221.979 446.129 222.473C445.845 222.968 445.449 223.389 444.972 223.702C444.067 224.219 443.326 223.796 443.326 222.749C443.358 222.18 443.523 221.626 443.809 221.134C444.095 220.641 444.494 220.223 444.972 219.914C445.877 219.384 446.606 219.808 446.606 220.855Z" fill="#D4ECFF"/>
<path d="M451.886 217.808C451.853 218.378 451.688 218.933 451.402 219.428C451.116 219.922 450.718 220.343 450.24 220.655C449.334 221.172 448.605 220.749 448.605 219.702C448.635 219.134 448.798 218.581 449.082 218.088C449.366 217.595 449.763 217.177 450.24 216.867C451.18 216.361 451.886 216.761 451.886 217.808Z" fill="#D4ECFF"/>
<path d="M407.396 217.714L388.409 206.739C387.233 206.068 387.386 204.892 388.738 204.116L407.067 193.529C407.757 193.142 408.529 192.923 409.32 192.89C410.11 192.858 410.897 193.012 411.617 193.341L430.605 204.304C431.781 204.974 431.628 206.151 430.276 206.927L411.946 217.514C411.256 217.9 410.485 218.12 409.695 218.154C408.905 218.189 408.118 218.038 407.396 217.714Z" fill="#5793CE"/>
<path d="M409.219 208.527L406.585 207.01C406.433 206.915 406.444 206.751 406.585 206.645L409.125 205.174C409.222 205.126 409.328 205.1 409.436 205.1C409.545 205.1 409.651 205.126 409.748 205.174L412.382 206.692C412.534 206.786 412.523 206.951 412.382 207.057L409.842 208.527C409.745 208.576 409.639 208.601 409.531 208.601C409.422 208.601 409.316 208.576 409.219 208.527Z" fill="#D4ECFF"/>
<path d="M388.409 206.739H388.468C388.551 206.667 388.642 206.604 388.738 206.551L407.067 195.964C407.757 195.574 408.529 195.354 409.32 195.321C410.111 195.288 410.898 195.444 411.617 195.776L430.546 206.704C431.628 205.939 431.722 204.892 430.546 204.269L411.559 193.305C410.839 192.977 410.052 192.822 409.261 192.855C408.471 192.888 407.699 193.106 407.009 193.494L388.679 204.08C387.386 204.892 387.245 206.068 388.409 206.739Z" fill="#396CAA"/>
<path d="M107.613 273.601L67.039 250.169C64.5465 248.734 64.8521 246.216 67.7326 244.558L106.907 221.925C109.788 220.267 114.138 220.078 116.631 221.514L157.251 244.958C159.744 246.393 159.427 248.91 156.558 250.569L117.277 273.201C114.455 274.86 110.105 275.048 107.613 273.601Z" fill="#7DC3EA"/>
<path d="M111.846 264.061C109.971 264.102 108.117 263.66 106.461 262.779L65.8754 239.335C65.0505 238.917 64.3532 238.285 63.8567 237.505C63.3602 236.724 63.0828 235.825 63.0537 234.9C63.1301 233.803 63.4972 232.747 64.1171 231.839C64.737 230.932 65.5874 230.206 66.5809 229.736L105.756 207.104C109.389 204.998 114.55 204.833 117.783 206.692L158.357 230.136C159.183 230.554 159.881 231.186 160.379 231.966C160.878 232.746 161.158 233.646 161.191 234.571C161.112 235.667 160.744 236.722 160.124 237.629C159.504 238.537 158.655 239.263 157.663 239.735L118.453 262.367C116.433 263.492 114.157 264.076 111.846 264.061ZM108.765 258.78C110.553 259.815 114.009 259.626 116.172 258.38L155.359 235.747C156.335 235.182 156.535 234.665 156.535 234.571C156.397 234.381 156.216 234.228 156.006 234.124L115.432 210.691C113.645 209.656 110.176 209.844 108.013 211.091L68.8382 233.724C67.8506 234.288 67.6625 234.806 67.6625 234.9C67.7934 235.091 67.9717 235.245 68.1798 235.347L108.765 258.78Z" fill="white"/>
<path d="M158.874 220.208V206.198H127.483L116.631 199.893C114.138 198.446 109.788 198.634 106.908 200.293L96.7849 206.174H65.3698V220.573C65.3632 221.123 65.5177 221.664 65.8143 222.128C66.1109 222.592 66.5368 222.959 67.0393 223.184L107.613 246.616C110.106 248.051 114.456 247.875 117.325 246.216L156.511 223.584C158.169 222.608 158.968 221.361 158.874 220.208Z" fill="#396CAA"/>
<path d="M112.116 198.952C110.295 198.974 108.506 199.442 106.908 200.316L96.7849 206.198H65.3698V220.596C65.3632 221.147 65.5177 221.688 65.8143 222.152C66.1109 222.616 66.5368 222.983 67.0393 223.208L107.613 246.64C109 247.36 110.556 247.693 112.116 247.604V198.952Z" fill="url(#paint20_radial)"/>
<path d="M68.9204 206.151H65.3933V220.549C65.3866 221.1 65.5411 221.64 65.8378 222.105C66.1344 222.569 66.5602 222.936 67.0628 223.16L68.9439 224.243L68.9204 206.151Z" fill="#D4ECFF"/>
<path d="M108.236 246.946C110.752 247.859 113.513 247.83 116.008 246.863V230.477H108.236V246.946Z" fill="#5793CE"/>
<path d="M107.613 232.242L67.039 208.798C64.5465 207.362 64.8521 204.845 67.7326 203.186L106.907 180.554C109.788 178.895 114.138 178.719 116.631 180.154L157.251 203.598C159.744 205.033 159.427 207.551 156.558 209.209L117.277 231.842C114.455 233.5 110.105 233.677 107.613 232.242Z" fill="url(#paint21_linear)"/>
<path d="M156.511 206.445L117.277 229.077C114.408 230.748 110.058 230.924 107.566 229.489L66.9919 206.045C66.4963 205.778 66.0696 205.4 65.7457 204.939C64.8874 206.315 65.2754 207.809 66.9919 208.798L107.566 232.242C110.058 233.677 114.408 233.5 117.277 231.842L156.464 209.209C158.698 207.915 159.368 206.116 158.404 204.692C157.921 205.418 157.272 206.019 156.511 206.445Z" fill="white"/>
<path d="M143.943 223.902C143.914 224.47 143.75 225.023 143.466 225.516C143.182 226.008 142.786 226.427 142.309 226.736C141.403 227.266 140.674 226.842 140.674 225.795C140.703 225.227 140.867 224.674 141.151 224.181C141.435 223.689 141.832 223.27 142.309 222.96C143.214 222.431 143.943 222.855 143.943 223.902Z" fill="#D4ECFF"/>
<path d="M149.222 220.855C149.189 221.425 149.023 221.98 148.738 222.474C148.452 222.969 148.054 223.389 147.576 223.702C146.682 224.219 145.941 223.796 145.941 222.749C145.973 222.181 146.138 221.629 146.422 221.137C146.705 220.644 147.101 220.226 147.576 219.914C148.481 219.384 149.222 219.808 149.222 220.855Z" fill="#D4ECFF"/>
<path d="M154.489 217.808C154.459 218.378 154.295 218.932 154.011 219.427C153.727 219.921 153.331 220.342 152.854 220.655C151.949 221.172 151.22 220.749 151.22 219.702C151.249 219.134 151.413 218.581 151.697 218.088C151.981 217.595 152.378 217.177 152.854 216.867C153.724 216.361 154.489 216.761 154.489 217.808Z" fill="#D4ECFF"/>
<path d="M110.012 217.714L91.0239 206.739C89.8481 206.068 90.001 204.892 91.3531 204.116L109.682 193.529C110.373 193.142 111.144 192.923 111.935 192.89C112.726 192.858 113.513 193.012 114.232 193.341L133.22 204.304C134.396 204.974 134.231 206.151 132.891 206.927L114.562 217.514C113.871 217.9 113.1 218.12 112.31 218.154C111.52 218.189 110.733 218.038 110.012 217.714Z" fill="#5793CE"/>
<path d="M111.822 208.527L109.2 207.01C109.036 206.915 109.059 206.751 109.2 206.645L111.74 205.174C111.836 205.125 111.943 205.099 112.051 205.099C112.16 205.099 112.267 205.125 112.363 205.174L114.997 206.692C115.149 206.786 115.138 206.951 114.997 207.057L112.457 208.527C112.358 208.576 112.25 208.601 112.14 208.601C112.029 208.601 111.921 208.576 111.822 208.527Z" fill="#D4ECFF"/>
<path d="M91.0235 206.739L91.3057 206.551L109.635 195.964C110.324 195.574 111.096 195.354 111.887 195.321C112.678 195.288 113.466 195.444 114.185 195.776L133.114 206.704C134.196 205.939 134.29 204.892 133.173 204.269L114.185 193.305C113.465 192.977 112.678 192.822 111.888 192.855C111.097 192.888 110.325 193.106 109.635 193.494L91.3057 204.08C90.0006 204.892 89.8596 206.068 91.0235 206.739Z" fill="#396CAA"/>
</g>
<defs>
<radialGradient id="paint0_radial" cx="0" cy="0" r="1" gradientUnits="userSpaceOnUse" gradientTransform="translate(109.6 306.879) scale(39.5863 39.6068)">
<stop stop-color="#274F89"/>
<stop offset="1" stop-color="#173D7A"/>
</radialGradient>
<linearGradient id="paint1_linear" x1="85.5566" y1="292.505" x2="155.606" y2="292.505" gradientUnits="userSpaceOnUse">
<stop stop-color="#D4ECFF"/>
<stop offset="0.24" stop-color="#D0EAFE"/>
<stop offset="0.46" stop-color="#C5E2F9"/>
<stop offset="0.67" stop-color="#B2D6F2"/>
<stop offset="0.88" stop-color="#98C4E7"/>
<stop offset="1" stop-color="#86B8E0"/>
</linearGradient>
<radialGradient id="paint2_radial" cx="0" cy="0" r="1" gradientUnits="userSpaceOnUse" gradientTransform="translate(52.6954 265.896) scale(71.5539 71.5911)">
<stop stop-color="#699DD1"/>
<stop offset="0.27" stop-color="#6396CC"/>
<stop offset="0.64" stop-color="#5184BD"/>
<stop offset="1" stop-color="#396CAA"/>
</radialGradient>
<radialGradient id="paint3_radial" cx="0" cy="0" r="1" gradientUnits="userSpaceOnUse" gradientTransform="translate(9603.57 5667.32) scale(894.256 1549.42)">
<stop stop-color="#274F89"/>
<stop offset="1" stop-color="#173D7A"/>
</radialGradient>
<linearGradient id="paint4_linear" x1="17684.3" y1="3430.4" x2="20849.1" y2="3430.4" gradientUnits="userSpaceOnUse">
<stop stop-color="#D4ECFF"/>
<stop offset="0.24" stop-color="#D0EAFE"/>
<stop offset="0.46" stop-color="#C5E2F9"/>
<stop offset="0.67" stop-color="#B2D6F2"/>
<stop offset="0.88" stop-color="#98C4E7"/>
<stop offset="1" stop-color="#86B8E0"/>
</linearGradient>
<radialGradient id="paint5_radial" cx="0" cy="0" r="1" gradientUnits="userSpaceOnUse" gradientTransform="translate(8291.26 4063.61) scale(1616.4 2800.64)">
<stop stop-color="#699DD1"/>
<stop offset="0.27" stop-color="#6396CC"/>
<stop offset="0.64" stop-color="#5184BD"/>
<stop offset="1" stop-color="#396CAA"/>
</radialGradient>
<radialGradient id="paint6_radial" cx="0" cy="0" r="1" gradientUnits="userSpaceOnUse" gradientTransform="translate(9603.57 12300.7) scale(894.256 1549.82)">
<stop stop-color="#274F89"/>
<stop offset="1" stop-color="#173D7A"/>
</radialGradient>
<linearGradient id="paint7_linear" x1="17684.3" y1="7908.61" x2="20849.1" y2="7908.61" gradientUnits="userSpaceOnUse">
<stop stop-color="#D4ECFF"/>
<stop offset="0.24" stop-color="#D0EAFE"/>
<stop offset="0.46" stop-color="#C5E2F9"/>
<stop offset="0.67" stop-color="#B2D6F2"/>
<stop offset="0.88" stop-color="#98C4E7"/>
<stop offset="1" stop-color="#86B8E0"/>
</linearGradient>
<radialGradient id="paint8_radial" cx="0" cy="0" r="1" gradientUnits="userSpaceOnUse" gradientTransform="translate(8291.26 10697) scale(1616.4 2801.36)">
<stop stop-color="#699DD1"/>
<stop offset="0.27" stop-color="#6396CC"/>
<stop offset="0.64" stop-color="#5184BD"/>
<stop offset="1" stop-color="#396CAA"/>
</radialGradient>
<radialGradient id="paint9_radial" cx="0" cy="0" r="1" gradientUnits="userSpaceOnUse" gradientTransform="translate(2587.98 5667.32) scale(894.254 1549.42)">
<stop stop-color="#274F89"/>
<stop offset="1" stop-color="#173D7A"/>
</radialGradient>
<linearGradient id="paint10_linear" x1="3951.01" y1="3430.4" x2="7115.82" y2="3430.4" gradientUnits="userSpaceOnUse">
<stop stop-color="#D4ECFF"/>
<stop offset="0.24" stop-color="#D0EAFE"/>
<stop offset="0.46" stop-color="#C5E2F9"/>
<stop offset="0.67" stop-color="#B2D6F2"/>
<stop offset="0.88" stop-color="#98C4E7"/>
<stop offset="1" stop-color="#86B8E0"/>
</linearGradient>
<radialGradient id="paint11_radial" cx="0" cy="0" r="1" gradientUnits="userSpaceOnUse" gradientTransform="translate(1275.95 4063.61) scale(1616.4 2800.64)">
<stop stop-color="#699DD1"/>
<stop offset="0.27" stop-color="#6396CC"/>
<stop offset="0.64" stop-color="#5184BD"/>
<stop offset="1" stop-color="#396CAA"/>
</radialGradient>
<radialGradient id="paint12_radial" cx="0" cy="0" r="1" gradientUnits="userSpaceOnUse" gradientTransform="translate(232.486 136.454) scale(142.438 142.512)">
<stop stop-color="#396CAA"/>
<stop offset="1" stop-color="#274F89"/>
</radialGradient>
<linearGradient id="paint13_linear" x1="51337.1" y1="8337.73" x2="66058.8" y2="20081.9" gradientUnits="userSpaceOnUse">
<stop stop-color="#D4ECFF"/>
<stop offset="0.24" stop-color="#D0EAFE"/>
<stop offset="0.46" stop-color="#C5E2F9"/>
<stop offset="0.67" stop-color="#B2D6F2"/>
<stop offset="0.88" stop-color="#98C4E7"/>
<stop offset="1" stop-color="#86B8E0"/>
</linearGradient>
<linearGradient id="paint14_linear" x1="183.96" y1="145.285" x2="247.409" y2="135.391" gradientUnits="userSpaceOnUse">
<stop stop-color="#3919BB"/>
<stop offset="1" stop-color="#6507FA"/>
</linearGradient>
<linearGradient id="paint15_linear" x1="183.96" y1="145.285" x2="247.409" y2="135.391" gradientUnits="userSpaceOnUse">
<stop stop-color="#3919BB"/>
<stop offset="1" stop-color="#6507FA"/>
</linearGradient>
<radialGradient id="paint16_radial" cx="0" cy="0" r="1" gradientUnits="userSpaceOnUse" gradientTransform="translate(16743.1 14897.9) scale(2039.59 2123.82)">
<stop stop-color="#699DD1"/>
<stop offset="0.27" stop-color="#6396CC"/>
<stop offset="0.64" stop-color="#5184BD"/>
<stop offset="1" stop-color="#396CAA"/>
</radialGradient>
<linearGradient id="paint17_linear" x1="226.301" y1="289.035" x2="306.672" y2="336.921" gradientUnits="userSpaceOnUse">
<stop stop-color="#D4ECFF"/>
<stop offset="0.2" stop-color="#D0EAFE"/>
<stop offset="0.39" stop-color="#C5E2F9"/>
<stop offset="0.57" stop-color="#B2D6F2"/>
<stop offset="0.74" stop-color="#98C4E7"/>
<stop offset="0.84" stop-color="#86B8E0"/>
</linearGradient>
<radialGradient id="paint18_radial" cx="0" cy="0" r="1" gradientUnits="userSpaceOnUse" gradientTransform="translate(22805.8 10509.1) scale(2039.6 2122.87)">
<stop stop-color="#699DD1"/>
<stop offset="0.27" stop-color="#6396CC"/>
<stop offset="0.64" stop-color="#5184BD"/>
<stop offset="1" stop-color="#396CAA"/>
</radialGradient>
<linearGradient id="paint19_linear" x1="46024.3" y1="10869.2" x2="50218.7" y2="15198.3" gradientUnits="userSpaceOnUse">
<stop stop-color="#D4ECFF"/>
<stop offset="0.2" stop-color="#D0EAFE"/>
<stop offset="0.39" stop-color="#C5E2F9"/>
<stop offset="0.57" stop-color="#B2D6F2"/>
<stop offset="0.74" stop-color="#98C4E7"/>
<stop offset="0.84" stop-color="#86B8E0"/>
</linearGradient>
<radialGradient id="paint20_radial" cx="0" cy="0" r="1" gradientUnits="userSpaceOnUse" gradientTransform="translate(10678.2 10509) scale(2039.08 2122.85)">
<stop stop-color="#699DD1"/>
<stop offset="0.27" stop-color="#6396CC"/>
<stop offset="0.64" stop-color="#5184BD"/>
<stop offset="1" stop-color="#396CAA"/>
</radialGradient>
<linearGradient id="paint21_linear" x1="22081.8" y1="10869.2" x2="26276.1" y2="15200.6" gradientUnits="userSpaceOnUse">
<stop stop-color="#D4ECFF"/>
<stop offset="0.2" stop-color="#D0EAFE"/>
<stop offset="0.39" stop-color="#C5E2F9"/>
<stop offset="0.57" stop-color="#B2D6F2"/>
<stop offset="0.74" stop-color="#98C4E7"/>
<stop offset="0.84" stop-color="#86B8E0"/>
</linearGradient>
<clipPath id="clip0">
<rect width="475" height="378" fill="white"/>
</clipPath>
</defs>
</svg>
