<svg width="18" height="18" viewBox="0 0 18 18" fill="none" xmlns="http://www.w3.org/2000/svg">
<path d="M2.25 9.00003C2.25 9.41403 2.586 9.75003 3 9.75003H12.8027L9.90527 12.6475C9.61202 12.9407 9.61202 13.4155 9.90527 13.708L9.96973 13.7725C10.263 14.0657 10.7378 14.0657 11.0303 13.7725L15.2725 9.53031C15.5657 9.23706 15.5657 8.76226 15.2725 8.46976L11.0303 4.22757C10.737 3.93432 10.2622 3.93432 9.96973 4.22757L9.90527 4.29203C9.61202 4.58528 9.61202 5.06007 9.90527 5.35257L12.8027 8.25003H3C2.586 8.25003 2.25 8.58603 2.25 9.00003Z" fill="#357ABA"/>
</svg>
